<svg height="82" viewBox="0 0 82 82" width="82" xmlns="http://www.w3.org/2000/svg" xmlns:xlink="http://www.w3.org/1999/xlink"><defs><linearGradient id="a" x1="-5.060109%" x2="68.652465%" y1="92.848703%" y2="32.450007%"><stop offset="0" stop-color="#331b85"/><stop offset=".18" stop-color="#223aa4"/><stop offset=".38" stop-color="#1356c0"/><stop offset=".59" stop-color="#096ad3"/><stop offset=".79" stop-color="#0276df"/><stop offset="1" stop-color="#007ae3"/></linearGradient><path id="b" d="m54.6 2.7c-8.1626897-1.62867202-16.4780765-2.36632729-24.8-2.2-9.2.3-19.4 1.3-24.3 10.5-3.2 5.9-4.4 12.4-4.8 19.1-.6 9.8-.8 20.9 2.5 30.2 4.5 12.9 15.6 15.9 28 17.6 10.7 1.4 22.4 1.6 32.4-3.1s15-14.5 15.9-25 1.9-22.5-1.7-33-13.5-12.4-23.2-14.1z"/><mask id="c" fill="#fff"><use fill="#fff" fill-rule="evenodd" xlink:href="#b"/></mask></defs><g fill="none" fill-rule="nonzero" transform="translate(.5 1.5)"><use fill="url(#a)" xlink:href="#b"/><g fill="#fff" mask="url(#c)"><g transform="translate(13 -7)"><path d="m27.4 49.7c-.901885-.1534609-1.5205921-.9931349-1.4-1.9v-45.4c-.1205921-.90686509.498115-1.7465391 1.4-1.9.8 0 1.4.8 1.4 1.9v45.4c0 1.1-.6 1.9-1.4 1.9z"/><path d="m27.4 50c-.9 0-1.6-1-1.6-2.2v-45.4c0-1.2.7-2.2 1.6-2.2s1.6 1 1.6 2.2v45.4c0 1.2-.7 2.2-1.6 2.2zm0-49.2c-.6 0-1.1.8-1.1 1.7v45.3c0 .9.5 1.7 1.1 1.7s1.1-.8 1.1-1.7v-45.3c0-1-.5-1.7-1.1-1.7z"/><path d="m31.6 52.4c-.2616113-.0134599-.5098316-.11984-.7-.3l-4.2-2.6c-.4244395-.4591655-.492932-1.1441184-.1678168-1.6782363.3251153-.5341179.9650017-.7878836 1.5678168-.6217637l4.2 2.6c.321864.1843216.5496689.4973495.6260793.8602991.0764105.3629495-.0058506.7412545-.2260793 1.0397009-.2290057.4002545-.6404259.6620674-1.1.7z"/><path d="m31.6 52.6-.9-.2-4.2-2.6c-.3789249-.2506533-.6334235-.6505796-.7-1.1-.1869157-.8549302.3477052-1.7014133 1.2-1.9.4109762-.0836395.838365-.0124081 1.2.2l4.2 2.6c.7351143.4705669.994426 1.4213766.6 2.2-.3024712.4850989-.8285064.7856904-1.4.8zm-4.2-5.3h-.2c-.3.1-.6.2-.7.5-.1678801.2306443-.239591.5174879-.2.8.1076418.2703149.2792076.510507.5.7l4.2 2.6c.4990772.3209293 1.1627477.1881951 1.5-.3.1594951-.2715651.229468-.5864431.2-.9-.1107608-.2406427-.2832755-.4476604-.5-.6l-4.2-2.7z"/><path d="m23.3 52.4c-.7731986 0-1.4-.6268014-1.4-1.4-.0171667-.4760251.2088799-.9281183.6-1.2l4.2-2.6c.612653-.4197867 1.4464914-.288128 1.9.3.2393819.2726566.3539251.6329474.3159424.9937834-.0379828.360836-.2250349.6893799-.5159424.9062166h-.2l-4.2 2.7c-.1901684.18016-.4383887.2865401-.7.3z"/><path d="m23.3 52.6000052c-.9011787.0015552-1.6469908-.7003855-1.7-1.6000052.0143096-.5714936.3149011-1.0975288.8-1.4l4.2-2.6c.361635-.2124081.7890238-.2836395 1.2-.2.4046903.1097376.7583727.3573153 1 .7.2612626.3422035.3361554.7915601.2 1.2-.0665765.4494204-.3210751.8493467-.7 1.1l-4.2 2.6zm4.2-5.3000052-.6.2-4.3 2.6c-.4881951.3372523-.6209293 1.0009228-.3 1.5.3045796.5235942.9751517.7024134 1.5.4l4.2-2.7c.22812-.1435935.3886102-.3731988.445089-.6367666s.0041626-.5387745-.145089-.7632334c-.1441813-.249756-.4116258-.4025815-.7-.4 0-.1-.1-.1-.2-.1z"/><path d="m16.1 62.4h-.3c-1.1 0-4.9-.2-7.4-2.4s-1.9-3.7-1.8-5.6v-.8c0-11.9 6.8-20.8 12.9-20.8.3715252-.0274903.7386856.0942301 1.0202107.3382185.281525.2439883.4541949.5901209.4797893.9617815.0275666.3450149-.0835883.686779-.3088366.9495686-.2252483.2627897-.5459914.4249067-.8911634.4504314h-.3c-4.6 0-10.2 8.1-10.2 18.1v.9c0 1.8 0 2.7 1 3.5 1.610527 1.203911 3.5919951 1.8054281 5.6 1.7 1.9266736.0726259 3.8238795-.4895092 5.4-1.6.578082-.2546727 1.2551042-.0906761 1.6525648.4003047.3974606.4909807.4168938 1.1873114.0474352 1.6996953-1.9743598 1.5130738-4.4141985 2.2909933-6.9 2.2z"/><path d="m16.1 62.7000958h-.3c-1.1 0-5-.2000958-7.5-2.5000958s-2-3.9-2-5.8v-.8c0-12.1 7-21 13.2-21 .5716249-.0714531 1.137948.1674798 1.4856406.6267949.3476927.4593152.4239323 1.0692317.2 1.6-.2239322.5307683-.7140157.901752-1.2856406.9732051h-.4c-4.5 0-9.9 7.9-9.9 17.8v.9c0 1.7 0 2.5.8 3.3s3.9 1.6 5.7 1.6c1.8026336.0688298 3.5722126-.4974355 5-1.6.3481379-.2471364.77652-.3542319 1.2-.3.4257719.0498463.813734.2684623 1.0769179.6068416.2631839.3383794.379575.7682173.3230821 1.1931584-.099068.4133272-.3061248.7929313-.6 1.1-2.0247305 1.5005512-4.4798541 2.3072346-7 2.3000958zm3.4-29.6000958c-6 0-12.7 8.8-12.7 20.5v.9c0 1.8-.1 3.8 1.8 5.4s6.2 2.2 7.2 2.2h.3c2.3753165.0746383 4.7045515-.6664819 6.6-2.1.2429969-.1592352.404732-.4162755.4431286-.7042495.0383965-.2879741-.0503417-.5784108-.2431286-.7957505-.1254173-.2678085-.4055993-.4279125-.7-.4-.283131-.0864925-.5908809-.009555-.8.2-1.5836051 1.1816659-3.525812 1.7819844-5.5 1.7-2.1043699.0168158-4.1633958-.6113616-5.9-1.8-1-.9-1-1.9-1-3.7v-.9c0-8.3 4.7-18.4 10.5-18.4.6075132 0 1.1-.4924868 1.1-1.1.0014214-.2834878-.117548-.554257-.3273146-.7449539s-.4906154-.2833988-.7726854-.2550461z"/><path d="m15.5 68.9h-.3c-5.3 0-13.5-2.9-14-9.1-.24907299-1.7215091-.34944375-3.4612688-.3-5.2 0-14.8 8.6-27.8 18.3-27.8.7731986 0 1.4.6268014 1.4 1.4s-.6268014 1.4-1.4 1.4c-8.2 0-15.6 11.9-15.6 25 .00322149 1.6378222.10339672 3.2740175.3 4.9.4 4.6 7.7 6.6 11.3 6.6h.3c3.136082.0789574 6.1934705-.9875735 8.6-3 .2894194-.2442886.6654652-.3608954 1.042321-.3232098s.7223647.2264478.957679.5232098c.4558965.6193621.3695148 1.4831791-.2 2-2.9187447 2.4155321-6.6125203 3.6941467-10.4 3.6z"/><path d="m15.5 69.2h-.3c-5.4 0-13.7-3-14.3-9.4-.19965005-1.7261449-.3-3.4623475-.3-5.2 0-14.9 8.7-28 18.7-28 .8836556 0 1.6.7163444 1.6 1.6.0015604.9011787-.7003803 1.6469908-1.6 1.7-8.1 0-15.4 11.8-15.4 24.7.00038873 1.6046723.10058215 3.207767.3 4.8.3 4.4 7.5 6.4 11 6.4h.3c3.0706226.0484991 6.0548118-1.0172828 8.4-3 .3425742-.2664764.7660548-.4076366 1.2-.4.9152892.1023146 1.6057008.8790276 1.6000696 1.8-.0991376.4133272-.3061944.7929313-.6000696 1.1-2.9601018 2.5140768-6.7163458 3.8960912-10.6 3.9zm3.8-42.1c-9.7 0-18.1 12.9-18.1 27.5-.04700595 1.7386948.05335282 3.4782468.3 5.2.5 6 8.5 8.8 13.7 8.8h.3c3.7293986.1103119 7.3660485-1.1732116 10.2-3.6.249756-.1441813.4025815-.4116258.4-.7.039591-.2825121-.0321199-.5693557-.2-.8-.1768503-.2657826-.4812637-.4179894-.8-.4-.2825121-.039591-.5693557.0321199-.8.2-2.4388481 2.1036753-5.581119 3.2106116-8.8 3.1h-.3c-3.7 0-11.2-2.1-11.5-6.8-.19948239-1.6257192-.29966822-3.2620879-.3-4.9 0-13.2 7.5-25.2 15.9-25.2.3099204.0012836.6060027-.1282324.8154253-.3566935.2094227-.228461.3127522-.534667.2845747-.8433065 0-.2917381-.1158925-.5715274-.3221825-.7778175-.2062901-.20629-.4860794-.3221825-.7778175-.3221825z"/><path d="m17 56.1h-.2l-1.8-.2c-1.585215-.2928755-2.726828-1.6881803-2.7-3.3v-.5c0-6.9 3.6-11.6 6.1-12.7.6647076-.299064 1.4476723-.0380757 1.8.6.2841136.6906656-.023917 1.4827442-.7 1.8-1.6.7-4.6 4.5-4.6 10.3v.5c0 .3.3.7.6.7l1.2.2h.2c.618763-.0271352 1.227981-.1625169 1.8-.4.6647076-.299064 1.4476723-.0380757 1.8.6.2587834.6134678.0497081 1.3243238-.5 1.7-.9266651.4779961-1.9574811.7185198-3 .7z"/><path d="m17 56.4h-.2l-1.8-.2c-1.7089634-.3671892-2.947004-1.852838-3-3.6v-.5c0-7 3.7-11.8 6.3-13 .3806687-.1994805.8286161-.2260984 1.2302296-.0731028.4016136.1529957.7183117.4709071.8697704.8731028.3525075.8009879-.0039064 1.7365744-.8 2.1-1.5.7-4.4 4.5-4.4 10.1v.4c.0121369.2585754.165983.4893446.4.6h1.3c.5923057.0217525 1.1795374-.1164197 1.7-.4.748887-.3831378 1.666565-.1209441 2.1.6.2466416.362658.3222085.8150943.2068103 1.238221s-.4102004.7745532-.8068103.961779c-.9461167.5444715-2.0094071.8531687-3.1.9zm2-16.9h-.4c-2.5 1.1-6 5.8-6 12.5v.5c.0456355 1.4763845 1.0667954 2.7426228 2.5 3.1h1.9c1.0153763.0672065 2.0270874-.1769997 2.9-.7.3937682-.4224733.3937682-1.0775267 0-1.5-.293615-.2024143-.6434511-.3073651-1-.3-.5652353.3617756-1.2299056.5366888-1.9.5h-.2l-1.3-.2c-.4731232-.0964736-.8097357-.5172392-.8-1v-.4c0-6 3.1-10 4.7-10.7.2800653-.0866838.5079843-.2919007.623471-.5613696.1154866-.2694688.1069065-.5760426-.023471-.8386304-.2198951-.3466793-.5906264-.5691181-1-.6z"/><path d="m38.7 62.4c-2.4518229.067723-4.8524825-.708961-6.8-2.2-.5397829-.2378002-.87262-.7884098-.8323039-1.3768731s.4451364-1.0885353 1.0123072-1.2504972c.5671709-.1619618 1.1750155.0489329 1.5199967.5273703 1.5622447 1.1388561 3.46951 1.7039718 5.4 1.6 2.0367857.0878184 4.0440662-.5108442 5.7-1.7.9-.8.9-1.7.9-3.5v-.9c0-10-5.6-18-10.2-18-.7495006-.1008031-1.3067483-.7437812-1.3-1.5.0858777-.6792309.6207691-1.2141223 1.3-1.3 6.1 0 12.9 8.9 12.9 20.8v.8c0 1.9.1 4-1.8 5.7s-6.3 2.3-7.5 2.3z"/><path d="m38.7 62.7000958c-2.5201459.0071388-4.9752695-.7995446-7-2.3000958-.3393203-.2733564-.5524768-.6732784-.5902241-1.1073718-.0377473-.4340935.1031803-.8648053.3902241-1.1926282.2521612-.3116527.6063483-.5241649 1-.6.424043-.064912.8563913.0431751 1.2.3 1.5007381 1.1095697 3.3350909 1.6739859 5.2 1.6 1.9595569.0873206 3.8930726-.4751567 5.5-1.6.9-.7.9-1.6.9-3.3v-.9c0-9.9-5.4-17.8-10-17.8-.4257719-.0498463-.813734-.2684623-1.0769179-.6068416-.2631839-.3383794-.379575-.7682173-.3230821-1.1931584.1187334-.7183081.6816919-1.2812666 1.4-1.4 6.3 0 13.2 9 13.2 21v.8c0 1.9.1 4.1-1.9 5.9s-6.5 2.4000958-7.6 2.4000958zm-6-4.7000958h-.1l-.7.4c-.1966952.2343475-.2869018.5400279-.2489529.8436191.0379489.3035913.2006243.5776613.4489529.7563809 1.8954485 1.4335181 4.2246835 2.1746383 6.6 2.1h.3c1 0 4.8-.1 7.2-2.3s1.8-3.6 1.8-5.4v-.8c0-11.7-6.7-20.500025-12.7-20.500025-.2834878-.0013964-.554257.117573-.7449539.3273396s-.2833988.4906154-.2550461.7726854c-.0325803.2739149.0622519.5476433.2573043.7426957s.4687808.2898846.7426957.2573043c5.8 0 10.5 10 10.5 18.4v.9c0 1.8 0 2.8-1 3.7-1.7366042 1.1886384-3.7956301 1.8168158-5.9 1.8-1.974188.0819844-3.9163949-.5183341-5.5-1.7-.177442-.1986601-.4337689-.3085144-.7-.3z"/><path d="m39.3 68.9c-3.8063006.1037603-7.5145192-1.2155098-10.4-3.7-.2909075-.2168367-.4779596-.5453806-.5159424-.9062166-.0379827-.360836.0765605-.7211268.3159424-.9937834.2353143-.296762.5808232-.4855242.957679-.5232098s.7529016.0789212 1.042321.3232098c2.4242322 1.9810158 5.4695934 3.043351 8.6 3h.2c3.7 0 11-2 11.4-6.6-.1 0-.1-.1 0-.1.2025386-1.625437.302736-3.2619952.3-4.9 0-13-7.4-24.9-15.6-24.9-.7731986 0-1.4-.6268014-1.4-1.4s.6268014-1.4 1.4-1.4c9.7 0 18.3 13 18.3 27.8-.0031839 1.7375646-.1033396 3.4735975-.3 5.2-.5 6.2-8.7 9.1-14.1 9.1z"/><path d="m39.3 69.2c-3.8517341.0106483-7.5915482-1.2947585-10.6-3.7-.3040337-.2872215-.4835128-.6820755-.5-1.1-.0593398-.9037853.6003302-1.6953893 1.5-1.8.4339452-.0076366.8574258.1335236 1.2.4 2.3548813 1.954744 5.3407243 2.9855708 8.4 2.9h.2c3.6 0 10.7-1.9 11.1-6.3.2025386-1.625437.302736-3.2619952.3-4.9 0-12.9-7.3-24.7-15.4-24.7-.8836556 0-1.6-.7163444-1.6-1.6-.0015604-.9011787.7003803-1.6469908 1.6-1.7 10 0 18.7 13.1 18.7 28-.0002838 1.7709016-.1004428 3.540378-.3 5.3-.6 6.3-8.9 9.3-14.3 9.3zm-9.5-6.1h-.1c-.2883742-.0025815-.5558187.150244-.7.4-.2037093.2153504-.3118793.5038039-.3.8.0713965.2636516.2091015.5046353.4.7 2.8528639 2.3938503 6.4765537 3.6727997 10.2 3.6h.3c5.3 0 13.3-2.8 13.8-8.8.1966604-1.7264025.2968161-3.4624354.3-5.2 0-14.7-8.5-27.5-18.1-27.5-.6075132 0-1.1.4924868-1.1 1.1s.4924868 1.1 1.1 1.1c8.3 0 15.9 12 15.9 25.3-.0032215 1.6378222-.1033967 3.2740175-.3 4.9-.4 4.8-7.9 6.9-11.6 6.9h-.3c-3.1728263.0131495-6.2503976-1.0834564-8.7-3.1-.234669-.1590748-.5180804-.2299277-.8-.2z"/><path d="m37.8 56.1c-1.0425189.0185198-2.0733349-.2220039-3-.7-.6380757-.3523277-.899064-1.1352924-.6-1.8.168251-.3093208.4547821-.5371593.7940551-.6314018.3392729-.0942424.7022635-.0468267 1.0059449.1314018.5748313.2284651 1.1825088.3635045 1.8.4h.2l1.2-.2c.3471159-.0500831.6035945-.3493081.6-.7v-.5c0-5.8-3-9.7-4.5-10.3-.676083-.3172558-1.2768763-1.1638266-.9927627-1.8544922.389551-.83471 1.0756113-.9640726 1.9927627-.5455078 2.6 1.1 6.2 5.8 6.2 12.7v.5c-.012775 1.5977799-1.136389 2.9710859-2.7 3.3l-1.8.2z"/><path d="m37.8 56.4c-1.1142014-.0154497-2.2096107-.2893021-3.2-.8-.3914658-.1645004-.6871172-.4977791-.8037705-.9060656s-.0417003-.8474521.2037705-1.1939344c.1713419-.3845654.4964104-.6794216.8958146-.8125563s.8363727-.0922909 1.2041854.1125563c.5204626.2835803 1.1076943.4217525 1.7.4h1.3c.234017-.1106554.3878631-.3414246.4-.6v-.4c0-5.6-2.9-9.4-4.4-10.1-.7960936-.3634256-1.1525075-1.2990121-.8-2.1.1514587-.4021957.4681568-.7201071.8697704-.8731028.4016135-.1529956.8495609-.1263777 1.2302296.0731028 2.6 1.2 6.3 6 6.3 13v.5c-.0416666 1.7176083-1.2306468 3.1935837-2.9 3.6l-1.8.2zm-2.4-3.3c-.583684.0986012-1.0082697.6081041-1 1.2.022504.333467.2101156.6336457.5.8.8907398.4779095 1.889329.7189483 2.9.7h.2l1.7-.2c1.4376202-.283476 2.4804142-1.5348287 2.5-3v-.5c0-6.8-3.5-11.4-6-12.5-.2875004-.3525966-.762397-.4918233-1.1947677-.3502733s-.7329884.5346655-.7563086.9890189c-.0233201.4543534.2354699.8761811.6510763 1.0612544l.5.2c1.6.7 4.7 4.7 4.7 10.6v.4c.0089427.5372732-.371595 1.0023748-.9 1.1h-1.4c-.6591156.0602193-1.3211099-.0791479-1.9-.4h-.5z"/></g></g></g></svg>