<svg height="32.2mm" viewBox="0 0 229.5 91.2" width="81mm" xmlns="http://www.w3.org/2000/svg" xmlns:xlink="http://www.w3.org/1999/xlink"><linearGradient id="a" gradientUnits="userSpaceOnUse" x1="6.3" x2="65.27" y1="81.65" y2="32.28"><stop offset="0" stop-color="#331b85"/><stop offset=".18" stop-color="#223aa4"/><stop offset=".38" stop-color="#1356c0"/><stop offset=".59" stop-color="#096ad3"/><stop offset=".79" stop-color="#0276df"/><stop offset="1" stop-color="#007ae3"/></linearGradient><path d="m64.6 9.7a115 115 0 0 0 -24.8-2.2c-9.2.3-19.4 1.3-24.3 10.5-3.2 5.9-4.4 12.4-4.8 19.1-.6 9.8-.8 20.9 2.5 30.2 4.5 12.9 15.6 15.9 28 17.6 10.7 1.4 22.4 1.6 32.4-3.1s15-14.5 15.9-25 1.9-22.5-1.7-33-13.5-12.4-23.2-14.1z" fill="url(#a)"/><g fill="#fff"><path d="m50.4 49.7a1.7 1.7 0 0 1 -1.4-1.9v-45.4a1.7 1.7 0 0 1 1.4-1.9c.8 0 1.4.8 1.4 1.9v45.4c0 1.1-.6 1.9-1.4 1.9z"/><path d="m50.4 50c-.9 0-1.6-1-1.6-2.2v-45.4c0-1.2.7-2.2 1.6-2.2s1.6 1 1.6 2.2v45.4c0 1.2-.7 2.2-1.6 2.2zm0-49.2c-.6 0-1.1.8-1.1 1.7v45.3c0 .9.5 1.7 1.1 1.7s1.1-.8 1.1-1.7v-45.3c0-1-.5-1.7-1.1-1.7z"/><path d="m54.6 52.4a1.1 1.1 0 0 1 -.7-.3l-4.2-2.6a1.4 1.4 0 0 1 1.4-2.3l4.2 2.6a1.3 1.3 0 0 1 .4 1.9 1.4 1.4 0 0 1 -1.1.7z"/><path d="m54.6 52.6-.9-.2-4.2-2.6a1.6 1.6 0 0 1 -.7-1.1 1.6 1.6 0 0 1 1.2-1.9 1.7 1.7 0 0 1 1.2.2l4.2 2.6a1.7 1.7 0 0 1 .6 2.2 1.7 1.7 0 0 1 -1.4.8zm-4.2-5.3h-.2c-.3.1-.6.2-.7.5a1.1 1.1 0 0 0 -.2.8 1.8 1.8 0 0 0 .5.7l4.2 2.6a1.1 1.1 0 0 0 1.5-.3 1.5 1.5 0 0 0 .2-.9 1.5 1.5 0 0 0 -.5-.6l-4.2-2.7z"/><path d="m46.3 52.4a1.4 1.4 0 0 1 -1.4-1.4 1.4 1.4 0 0 1 .6-1.2l4.2-2.6a1.4 1.4 0 0 1 1.9.3 1.3 1.3 0 0 1 -.2 1.9h-.2l-4.2 2.7a1.1 1.1 0 0 1 -.7.3z"/><path d="m46.3 52.6a1.7 1.7 0 0 1 -1.7-1.6 1.7 1.7 0 0 1 .8-1.4l4.2-2.6a1.7 1.7 0 0 1 1.2-.2 1.8 1.8 0 0 1 1 .7 1.3 1.3 0 0 1 .2 1.2 1.6 1.6 0 0 1 -.7 1.1l-4.2 2.6zm4.2-5.3-.6.2-4.3 2.6a1.1 1.1 0 0 0 -.3 1.5 1.1 1.1 0 0 0 1.5.4l4.2-2.7a1 1 0 0 0 .3-1.4.8.8 0 0 0 -.7-.4c0-.1-.1-.1-.2-.1z"/><path d="m39.1 62.4h-.3c-1.1 0-4.9-.2-7.4-2.4s-1.9-3.7-1.8-5.6v-.8c0-11.9 6.8-20.8 12.9-20.8a1.4 1.4 0 0 1 1.5 1.3 1.3 1.3 0 0 1 -1.2 1.4h-.3c-4.6 0-10.2 8.1-10.2 18.1v.9c0 1.8 0 2.7 1 3.5a8.6 8.6 0 0 0 5.6 1.7 8.8 8.8 0 0 0 5.4-1.6 1.4 1.4 0 0 1 1.7 2.1 10.7 10.7 0 0 1 -6.9 2.2z"/><path d="m39.1 62.7h-.3c-1.1 0-5-.2-7.5-2.5s-2-3.9-2-5.8v-.8c0-12.1 7-21 13.2-21a1.6 1.6 0 0 1 .4 3.2h-.4c-4.5 0-9.9 7.9-9.9 17.8v.9c0 1.7 0 2.5.8 3.3s3.9 1.6 5.7 1.6a7.7 7.7 0 0 0 5-1.6 1.7 1.7 0 0 1 1.2-.3 1.6 1.6 0 0 1 1.4 1.8 2.4 2.4 0 0 1 -.6 1.1 11.7 11.7 0 0 1 -7 2.3zm3.4-29.6c-6 0-12.7 8.8-12.7 20.5v.9c0 1.8-.1 3.8 1.8 5.4s6.2 2.2 7.2 2.2h.3a10.4 10.4 0 0 0 6.6-2.1 1 1 0 0 0 .2-1.5.7.7 0 0 0 -.7-.4.8.8 0 0 0 -.8.2 8.6 8.6 0 0 1 -5.5 1.7 10.3 10.3 0 0 1 -5.9-1.8c-1-.9-1-1.9-1-3.7v-.9c0-8.3 4.7-18.4 10.5-18.4a1.1 1.1 0 0 0 1.1-1.1 1 1 0 0 0 -1.1-1z"/><path d="m38.5 68.9h-.3c-5.3 0-13.5-2.9-14-9.1a30.3 30.3 0 0 1 -.3-5.2c0-14.8 8.6-27.8 18.3-27.8a1.4 1.4 0 0 1 1.4 1.4 1.4 1.4 0 0 1 -1.4 1.4c-8.2 0-15.6 11.9-15.6 25a41.5 41.5 0 0 0 .3 4.9c.4 4.6 7.7 6.6 11.3 6.6h.3a12.9 12.9 0 0 0 8.6-3 1.4 1.4 0 0 1 2 .2 1.5 1.5 0 0 1 -.2 2 15.7 15.7 0 0 1 -10.4 3.6z"/><path d="m38.5 69.2h-.3c-5.4 0-13.7-3-14.3-9.4a45.3 45.3 0 0 1 -.3-5.2c0-14.9 8.7-28 18.7-28a1.6 1.6 0 0 1 1.6 1.6 1.7 1.7 0 0 1 -1.6 1.7c-8.1 0-15.4 11.8-15.4 24.7a38.7 38.7 0 0 0 .3 4.8c.3 4.4 7.5 6.4 11 6.4h.3a12.7 12.7 0 0 0 8.4-3 1.9 1.9 0 0 1 1.2-.4 1.8 1.8 0 0 1 1.6 1.8 2.4 2.4 0 0 1 -.6 1.1 16.4 16.4 0 0 1 -10.6 3.9zm3.8-42.1c-9.7 0-18.1 12.9-18.1 27.5a30.8 30.8 0 0 0 .3 5.2c.5 6 8.5 8.8 13.7 8.8h.3a15 15 0 0 0 10.2-3.6.8.8 0 0 0 .4-.7 1.1 1.1 0 0 0 -.2-.8.9.9 0 0 0 -.8-.4 1.1 1.1 0 0 0 -.8.2 12.8 12.8 0 0 1 -8.8 3.1h-.3c-3.7 0-11.2-2.1-11.5-6.8a40.3 40.3 0 0 1 -.3-4.9c0-13.2 7.5-25.2 15.9-25.2a1.1 1.1 0 0 0 1.1-1.2 1.1 1.1 0 0 0 -1.1-1.1z"/><path d="m40 56.1h-.2l-1.8-.2a3.3 3.3 0 0 1 -2.7-3.3v-.5c0-6.9 3.6-11.6 6.1-12.7a1.4 1.4 0 0 1 1.8.6 1.4 1.4 0 0 1 -.7 1.8c-1.6.7-4.6 4.5-4.6 10.3v.5c0 .3.3.7.6.7l1.2.2h.2a5.3 5.3 0 0 0 1.8-.4 1.4 1.4 0 0 1 1.8.6 1.4 1.4 0 0 1 -.5 1.7 6.3 6.3 0 0 1 -3 .7z"/><path d="m40 56.4h-.2l-1.8-.2a3.8 3.8 0 0 1 -3-3.6v-.5c0-7 3.7-11.8 6.3-13a1.5 1.5 0 0 1 2.1.8 1.6 1.6 0 0 1 -.8 2.1c-1.5.7-4.4 4.5-4.4 10.1v.4a.7.7 0 0 0 .4.6h1.3a3.3 3.3 0 0 0 1.7-.4 1.6 1.6 0 0 1 2.1.6 1.5 1.5 0 0 1 -.6 2.2 6.8 6.8 0 0 1 -3.1.9zm2-16.9h-.4c-2.5 1.1-6 5.8-6 12.5v.5a3.3 3.3 0 0 0 2.5 3.1h1.9a5 5 0 0 0 2.9-.7 1.1 1.1 0 0 0 0-1.5 1.7 1.7 0 0 0 -1-.3 3.2 3.2 0 0 1 -1.9.5h-.2l-1.3-.2a1 1 0 0 1 -.8-1v-.4c0-6 3.1-10 4.7-10.7a1 1 0 0 0 .6-1.4 1.3 1.3 0 0 0 -1-.6z"/><path d="m61.7 62.4a10.7 10.7 0 0 1 -6.8-2.2 1.4 1.4 0 1 1 1.7-2.1 8.4 8.4 0 0 0 5.4 1.6 9.1 9.1 0 0 0 5.7-1.7c.9-.8.9-1.7.9-3.5v-.9c0-10-5.6-18-10.2-18a1.5 1.5 0 0 1 -1.3-1.5 1.5 1.5 0 0 1 1.3-1.3c6.1 0 12.9 8.9 12.9 20.8v.8c0 1.9.1 4-1.8 5.7s-6.3 2.3-7.5 2.3z"/><path d="m61.7 62.7a11.7 11.7 0 0 1 -7-2.3 1.6 1.6 0 0 1 -.2-2.3 1.7 1.7 0 0 1 1-.6 1.6 1.6 0 0 1 1.2.3 8.2 8.2 0 0 0 5.2 1.6 8.9 8.9 0 0 0 5.5-1.6c.9-.7.9-1.6.9-3.3v-.9c0-9.9-5.4-17.8-10-17.8a1.6 1.6 0 0 1 -1.4-1.8 1.7 1.7 0 0 1 1.4-1.4c6.3 0 13.2 9 13.2 21v.8c0 1.9.1 4.1-1.9 5.9s-6.5 2.4-7.6 2.4zm-6-4.7h-.1l-.7.4a1.1 1.1 0 0 0 .2 1.6 10.4 10.4 0 0 0 6.6 2.1h.3c1 0 4.8-.1 7.2-2.3s1.8-3.6 1.8-5.4v-.8c0-11.7-6.7-20.5-12.7-20.5a1 1 0 0 0 -1 1.1.9.9 0 0 0 1 1c5.8 0 10.5 10 10.5 18.4v.9c0 1.8 0 2.8-1 3.7a10.3 10.3 0 0 1 -5.9 1.8 8.6 8.6 0 0 1 -5.5-1.7.9.9 0 0 0 -.7-.3z"/><path d="m62.3 68.9a15.3 15.3 0 0 1 -10.4-3.7 1.3 1.3 0 0 1 -.2-1.9 1.4 1.4 0 0 1 2-.2 13.3 13.3 0 0 0 8.6 3h.2c3.7 0 11-2 11.4-6.6-.1 0-.1-.1 0-.1a39.1 39.1 0 0 0 .3-4.9c0-13-7.4-24.9-15.6-24.9a1.4 1.4 0 1 1 0-2.8c9.7 0 18.3 13 18.3 27.8a46.7 46.7 0 0 1 -.3 5.2c-.5 6.2-8.7 9.1-14.1 9.1z"/><path d="m62.3 69.2a16.9 16.9 0 0 1 -10.6-3.7 1.6 1.6 0 0 1 -.5-1.1 1.7 1.7 0 0 1 1.5-1.8 1.9 1.9 0 0 1 1.2.4 12.6 12.6 0 0 0 8.4 2.9h.2c3.6 0 10.7-1.9 11.1-6.3a39.1 39.1 0 0 0 .3-4.9c0-12.9-7.3-24.7-15.4-24.7a1.6 1.6 0 0 1 -1.6-1.6 1.7 1.7 0 0 1 1.6-1.7c10 0 18.7 13.1 18.7 28a47.1 47.1 0 0 1 -.3 5.3c-.6 6.3-8.9 9.3-14.3 9.3zm-9.5-6.1h-.1a.8.8 0 0 0 -.7.4 1.1 1.1 0 0 0 -.3.8 1.6 1.6 0 0 0 .4.7 15.4 15.4 0 0 0 10.2 3.6h.3c5.3 0 13.3-2.8 13.8-8.8a46.7 46.7 0 0 0 .3-5.2c0-14.7-8.5-27.5-18.1-27.5a1.1 1.1 0 1 0 0 2.2c8.3 0 15.9 12 15.9 25.3a41.5 41.5 0 0 1 -.3 4.9c-.4 4.8-7.9 6.9-11.6 6.9h-.3a13.6 13.6 0 0 1 -8.7-3.1 1.2 1.2 0 0 0 -.8-.2z"/><path d="m60.8 56.1a6.3 6.3 0 0 1 -3-.7 1.4 1.4 0 0 1 -.6-1.8 1.3 1.3 0 0 1 1.8-.5 5.8 5.8 0 0 0 1.8.4h.2l1.2-.2a.7.7 0 0 0 .6-.7v-.5c0-5.8-3-9.7-4.5-10.3a1.4 1.4 0 0 1 -.7-1.8 1.3 1.3 0 0 1 1.7-.6c2.6 1.1 6.2 5.8 6.2 12.7v.5a3.4 3.4 0 0 1 -2.7 3.3l-1.8.2z"/><path d="m60.8 56.4a7.2 7.2 0 0 1 -3.2-.8 1.4 1.4 0 0 1 -.6-2.1 1.5 1.5 0 0 1 2.1-.7 3.3 3.3 0 0 0 1.7.4h1.3a.7.7 0 0 0 .4-.6v-.4c0-5.6-2.9-9.4-4.4-10.1a1.6 1.6 0 0 1 -.8-2.1 1.5 1.5 0 0 1 2.1-.8c2.6 1.2 6.3 6 6.3 13v.5a3.8 3.8 0 0 1 -2.9 3.6l-1.8.2zm-2.4-3.3a1.2 1.2 0 0 0 -1 1.2 1 1 0 0 0 .5.8 5.9 5.9 0 0 0 2.9.7h.2l1.7-.2a3.1 3.1 0 0 0 2.5-3v-.5c0-6.8-3.5-11.4-6-12.5a1.1 1.1 0 1 0 -1.3 1.7l.5.2c1.6.7 4.7 4.7 4.7 10.6v.4a1.1 1.1 0 0 1 -.9 1.1h-1.4a3.3 3.3 0 0 1 -1.9-.4h-.5z"/></g><path d="m130.9 56v-16.5l-1.4 3.2-5.9 13.3h-.9l-5.9-13.3-1.4-3.2v16.5h-1v-18.4h1.1l7.6 17 7.7-17h1.1v18.4z" fill="#007ae3"/><path d="m131.9 56.8h-1a.8.8 0 0 1 -.8-.8v-12.6l-5.8 13a1 1 0 0 1 -.8.4h-.8a.8.8 0 0 1 -.7-.4l-5.8-13v12.6a.8.8 0 0 1 -.8.8h-1a.7.7 0 0 1 -.8-.8v-18.4a.8.8 0 0 1 .8-.8h1.1a.8.8 0 0 1 .7.5l6.9 15.4 7-15.4a.8.8 0 0 1 .7-.5h1.1a.9.9 0 0 1 .8.8v18.4a.7.7 0 0 1 -.8.8z" fill="#007ae3"/><path d="m142.7 45.2a4.7 4.7 0 0 1 4.4 2.6v-2.2h.9v10.4h-.9v-2.2a4.7 4.7 0 0 1 -4.4 2.6 5.3 5.3 0 0 1 -5.2-5.6 5.3 5.3 0 0 1 5.2-5.6zm.2 10.3c2.3 0 4.2-1.7 4.2-4.7s-1.9-4.7-4.2-4.7a4.3 4.3 0 0 0 -4.4 4.7 4.3 4.3 0 0 0 4.4 4.7z" fill="#007ae3"/><path d="m142.7 57.2a6.1 6.1 0 0 1 -6-6.4c0-3.7 2.5-6.4 6-6.4a5.7 5.7 0 0 1 3.7 1.2.8.8 0 0 1 .8-.8h.9a.9.9 0 0 1 .8.8v10.4a.8.8 0 0 1 -.8.8h-.9a.7.7 0 0 1 -.8-.8 6.3 6.3 0 0 1 -3.7 1.2zm.2-10.3c-2.1 0-3.5 1.5-3.5 3.9s1.4 3.9 3.5 3.9 3.4-1.2 3.4-3.9-1.7-3.9-3.4-3.9z" fill="#007ae3"/><path d="m154.8 50.4 5.5-4.8h1.3l-5.7 4.9 5.7 5.6h-1.3l-5.5-5.5v5.4h-1.1v-18.4h1.1z" fill="#007ae3"/><path d="m161.5 56.8h-1.2a.7.7 0 0 1 -.6-.2l-4.2-4.1v3.6a.8.8 0 0 1 -.8.8h-1a.9.9 0 0 1 -.8-.8v-18.5a.9.9 0 0 1 .8-.8h1a.8.8 0 0 1 .8.8v11l4.2-3.7.6-.2h1.2a.8.8 0 0 1 .8.9.9.9 0 0 1 -.3.6l-5 4.3 5.1 4.9a.8.8 0 0 1 -.6 1.4z" fill="#007ae3"/><path d="m179.6 56-2.3-5.5h-9l-2.2 5.5h-1.1l7.4-18.4h.9l7.4 18.4zm-6.7-16.9-4.2 10.5h8.2z" fill="#007ae3"/><path d="m180.7 56.8h-1.1a.8.8 0 0 1 -.8-.5l-2-5h-8l-2 5a.8.8 0 0 1 -.8.5h-1a.7.7 0 0 1 -.6-.3.8.8 0 0 1 -.1-.8l7.3-18.4a1 1 0 0 1 .8-.5h.9a.8.8 0 0 1 .7.5l7.4 18.4a.8.8 0 0 1 -.1.8.7.7 0 0 1 -.6.3zm-10.8-8h5.9l-2.9-7.5z" fill="#007ae3"/><path d="m185.2 42.1v-1.6h1v1.6zm0 13.9v-10.4h1v10.4z" fill="#007ae3"/><path d="m186.2 56.8h-1a.7.7 0 0 1 -.8-.8v-10.4a.8.8 0 0 1 .8-.9h1a.9.9 0 0 1 .8.8v10.5a.8.8 0 0 1 -.8.8zm0-13.9h-1a.7.7 0 0 1 -.8-.8v-1.6a.8.8 0 0 1 .8-.8h1a.9.9 0 0 1 .8.8v1.6a.8.8 0 0 1 -.8.8z" fill="#007ae3"/><path d="m192.6 49.8v6.2h-1v-10.4h.9v2.3a4.4 4.4 0 0 1 4-2.7v1.1a3.7 3.7 0 0 0 -4 3.4z" fill="#007ae3"/><path d="m192.6 56.8h-1a.8.8 0 0 1 -.8-.8v-10.4a.8.8 0 0 1 .8-.9h.9a.8.8 0 0 1 .8.8 5 5 0 0 1 3.3-1.2l.5.2a.9.9 0 0 1 .3.6v1.1a.5.5 0 0 1 -.3.5.7.7 0 0 1 -.6.3 2.7 2.7 0 0 0 -2.2.8 2.5 2.5 0 0 0 -.9 1.9v6.3a.7.7 0 0 1 -.8.8z" fill="#007ae3"/></svg>