<svg height="45.6mm" viewBox="0 0 109.7 129.1" width="38.7mm" xmlns="http://www.w3.org/2000/svg" xmlns:xlink="http://www.w3.org/1999/xlink"><linearGradient id="a" gradientUnits="userSpaceOnUse" x1="9.46" x2="68.43" y1="86.15" y2="36.78"><stop offset="0" stop-color="#331b85"/><stop offset=".18" stop-color="#223aa4"/><stop offset=".38" stop-color="#1356c0"/><stop offset=".59" stop-color="#096ad3"/><stop offset=".79" stop-color="#0276df"/><stop offset="1" stop-color="#007ae3"/></linearGradient><path d="m28.9 117.9v-16.5l-1.4 3.2-5.9 13.3h-.8l-6-13.3-1.4-3.2v16.5h-1v-18.4h1.1l7.6 17 7.7-17h1.1v18.4z" fill="#007ae3"/><path d="m29.9 118.7h-1a.9.9 0 0 1 -.8-.8v-12.7l-5.8 13a.8.8 0 0 1 -.7.5h-.9a.8.8 0 0 1 -.7-.5l-5.8-12.9v12.6a.9.9 0 0 1 -.8.8h-1a.8.8 0 0 1 -.8-.8v-18.4a.7.7 0 0 1 .8-.8h1.1a.7.7 0 0 1 .7.4l6.9 15.4 7-15.4a.7.7 0 0 1 .7-.4h1.1a.7.7 0 0 1 .8.8v18.4a.8.8 0 0 1 -.8.8z" fill="#007ae3"/><path d="m40.7 107.1a4.5 4.5 0 0 1 4.4 2.6v-2.3h.9v10.5h-.9v-2.3a4.8 4.8 0 0 1 -4.4 2.7 5.3 5.3 0 0 1 -5.2-5.6c0-3.4 2.3-5.6 5.2-5.6zm.2 10.3c2.3 0 4.3-1.7 4.3-4.7s-2-4.8-4.3-4.8-4.3 1.8-4.3 4.8 1.9 4.7 4.3 4.7z" fill="#007ae3"/><path d="m40.7 119.1a6.1 6.1 0 0 1 -6-6.4c0-3.7 2.5-6.5 6-6.5a6.4 6.4 0 0 1 3.7 1.3.8.8 0 0 1 .8-.8h.9a.8.8 0 0 1 .8.8v10.5a.8.8 0 0 1 -.8.8h-.9a.8.8 0 0 1 -.8-.8 5.8 5.8 0 0 1 -3.7 1.1zm.2-10.3c-2.1 0-3.5 1.5-3.5 3.9s1.4 3.9 3.5 3.9 3.5-1.2 3.5-3.9-1.8-3.9-3.5-3.9z" fill="#007ae3"/><path d="m52.8 112.3 5.5-4.8h1.3l-5.7 4.9 5.7 5.5h-1.3l-5.5-5.4v5.4h-1v-18.4h1z" fill="#007ae3"/><path d="m59.6 118.7h-1.3l-.6-.2-4.2-4.1v3.5a.7.7 0 0 1 -.8.8h-1a.8.8 0 0 1 -.8-.8v-18.4a.8.8 0 0 1 .8-.8h1a.7.7 0 0 1 .8.8v11l4.2-3.7.6-.2h1.2a.8.8 0 0 1 .8.8.8.8 0 0 1 -.2.6l-5.1 4.3 5.1 5a.8.8 0 0 1 .2.9.8.8 0 0 1 -.7.5z" fill="#007ae3"/><path d="m77.6 117.9-2.2-5.5h-9.1l-2.2 5.5h-1.1l7.4-18.4h.9l7.4 18.4zm-6.7-16.9-4.2 10.5h8.2z" fill="#007ae3"/><path d="m78.7 118.7h-1.1a.8.8 0 0 1 -.8-.5l-2-5h-8l-2 5a.8.8 0 0 1 -.8.5h-1a.7.7 0 0 1 -.6-.3.8.8 0 0 1 -.1-.8l7.4-18.4a.8.8 0 0 1 .7-.5h.9a.8.8 0 0 1 .7.5l7.4 18.4a.8.8 0 0 1 -.1.8.7.7 0 0 1 -.6.3zm-10.8-8.1h5.9l-2.9-7.4z" fill="#007ae3"/><path d="m83.2 104v-1.6h1v1.6zm0 13.9v-10.5h1v10.5z" fill="#007ae3"/><path d="m84.2 118.7h-1a.8.8 0 0 1 -.8-.8v-10.5a.8.8 0 0 1 .8-.8h1a.8.8 0 0 1 .8.8v10.5a.8.8 0 0 1 -.8.8zm0-13.9h-1a.7.7 0 0 1 -.8-.8v-1.6a.8.8 0 0 1 .8-.8h1a.8.8 0 0 1 .8.8v1.6a.7.7 0 0 1 -.8.8z" fill="#007ae3"/><path d="m90.6 111.7v6.2h-1v-10.5h.9v2.3a4.5 4.5 0 0 1 4-2.6v1a3.8 3.8 0 0 0 -4 3.5z" fill="#007ae3"/><path d="m90.6 118.7h-1a.9.9 0 0 1 -.8-.8v-10.5a.9.9 0 0 1 .8-.8h.9a.8.8 0 0 1 .8.8 5.9 5.9 0 0 1 3.3-1.3.9.9 0 0 1 .6.3.8.8 0 0 1 .2.6v1a.6.6 0 0 1 -.3.6.4.4 0 0 1 -.6.2 3.5 3.5 0 0 0 -2.2.8 2.9 2.9 0 0 0 -.9 2v6.2a.8.8 0 0 1 -.8.9z" fill="#007ae3"/><path d="m92.7 61.3c-.9 10.5-5.9 20.2-15.9 25s-21.7 4.5-32.5 3.1-23.4-4.7-28-17.6c-3.3-9.3-3.1-20.4-2.5-30.2.4-6.7 1.6-13.2 4.8-19.1 5-9.2 15.1-10.2 24.3-10.5 3-.1 6 0 9 .2h.6l2.1.2h.6a104.5 104.5 0 0 1 12.5 1.8c9.8 1.7 19.6 3.6 23.2 14.1s2.7 22.1 1.8 33z" fill="url(#a)"/><g fill="#fff"><path d="m54.9 12.4v39.9c0 1-.5 1.7-1.2 1.8h-.2c-.5 0-1-.5-1.2-1.2 0-.2-.1-.3-.1-.5v-40.2h.3l2.1.2z"/><path d="m54.9 12.4h-.3v40.3c-.1.7-.5 1.3-1 1.3h-.4a1.6 1.6 0 0 1 -.7-1.2v-40.6h-.6v40.1c0 .1 0 .2.1.2a1.9 1.9 0 0 0 1.2 1.8h.8a2.1 2.1 0 0 0 1.2-1.8v-.2-39.9z"/><path d="m57.8 56.9a1.3 1.3 0 0 1 -.8-.3l-4.2-2.6a1.3 1.3 0 0 1 -.2-1.9 1.4 1.4 0 0 1 1.7-.4l4.2 2.6a1.4 1.4 0 0 1 .4 1.9 1.9 1.9 0 0 1 -1.1.7z"/><path d="m58.6 54.1-3.4-2.1-.3-.2h-.3l-.2-.2-.7-.2h-.6l-.6.3-.2.2h-.1l-.2.4c0 .1 0 .1-.1.1v.8a1.8 1.8 0 0 0 .8 1.1l.4.2.2.2h.3l3.3 2.1.8.2h.1a1.6 1.6 0 0 0 1.3-.8 1.6 1.6 0 0 0 -.5-2.1zm-1.4 2.3-3.1-1.9h-.5l-.4-.3h-.2a1.8 1.8 0 0 1 -.5-.7v-.4c0-.1.1-.2.1-.3h.1l.6-.4h.8l.5.3.3.2h.3l3.1 2a.6.6 0 0 1 .5.6c0 .1.1.2.1.3a1.4 1.4 0 0 1 -.2.6 1.1 1.1 0 0 1 -1.5 0z"/><path d="m49.4 56.9a1.3 1.3 0 0 1 -1.3-1.4 1.2 1.2 0 0 1 .6-1.2l4.2-2.6a1.4 1.4 0 0 1 1.9.3 1.3 1.3 0 0 1 -.3 1.9c0 .1-.1.1-.2.1l-4.2 2.6a.9.9 0 0 1 -.7.3z"/><path d="m55.2 52.6v-.2h-.1a.4.4 0 0 0 -.1-.4.1.1 0 0 0 -.1-.1h-.1l-.2-.2-.6-.3h-.4a1.1 1.1 0 0 0 -.8.2l-.3.2h-.3l-.3.2-3.3 2.1a1.7 1.7 0 0 0 -.8 1.4 1.6 1.6 0 0 0 1.6 1.6l.9-.2 3.3-2.1h.2l.3-.2.4-.2a2.1 2.1 0 0 0 .7-1.1.6.6 0 0 0 0-.7zm-2 1.8h-.1l-3.2 2a1.2 1.2 0 0 1 -1.5-.4 1.1 1.1 0 0 1 .4-1.5l3.1-1.9h.3l.2-.2h.3l.4-.2.5-.2h.2a1 1 0 0 1 .7.4.4.4 0 0 1 .1.3.9.9 0 0 1 -.5 1.1l-.5.4h-.4z"/><path d="m42.2 66.9h-.2c-1.1 0-4.9-.2-7.4-2.4s-1.9-3.7-1.9-5.6v-.8c0-11.9 6.8-20.8 13-20.8a1.3 1.3 0 0 1 1.4 1.3 1.2 1.2 0 0 1 -1.2 1.4h-.2c-4.7 0-10.2 8.1-10.2 18.1v.9c0 1.8 0 2.7.9 3.5a8.9 8.9 0 0 0 5.7 1.7 8.8 8.8 0 0 0 5.4-1.6 1.3 1.3 0 0 1 1.9.2 1.4 1.4 0 0 1 -.3 1.9 10.7 10.7 0 0 1 -6.9 2.2z"/><path d="m48.5 62a1.6 1.6 0 0 0 -1.2.3 7.9 7.9 0 0 1 -5.1 1.6c-1.8 0-4.2-.4-5.6-1.6s-.9-1.6-.9-3.3v-.9c0-9.9 5.5-17.8 10-17.8h.3a1.7 1.7 0 0 0 1.5-1.8 1.6 1.6 0 0 0 -1.8-1.4c-6.3 0-13.2 8.9-13.2 21v.8c-.1 1.9-.1 4.1 1.9 5.8s6.5 2.5 7.6 2.5h.3a11.4 11.4 0 0 0 6.9-2.3 1.9 1.9 0 0 0 .7-1.1 1.7 1.7 0 0 0 -1.4-1.8zm-6.2 4.6h-.3c-1.1 0-4.8-.1-7.2-2.2s-1.8-3.6-1.8-5.4v-.9c0-11.7 6.7-20.5 12.6-20.5a1 1 0 0 1 1.1 1 1.1 1.1 0 0 1 -1.1 1.1c-5.8 0-10.4 10.1-10.4 18.4v.9c-.1 1.8-.1 2.8 1 3.7a10 10 0 0 0 5.8 1.8 8.6 8.6 0 0 0 5.6-1.7.8.8 0 0 1 .8-.2.8.8 0 0 1 .7.4 1 1 0 0 1 -.2 1.5 10.4 10.4 0 0 1 -6.6 2.1z"/><path d="m41.7 73.4h-.3c-5.4 0-13.5-2.9-14.1-9.1a45.3 45.3 0 0 1 -.3-5.2c0-14.8 8.6-27.8 18.4-27.8a1.4 1.4 0 0 1 0 2.8c-8.2 0-15.6 11.9-15.6 25a20.5 20.5 0 0 0 .3 4.9c.3 4.6 7.6 6.6 11.3 6.6h.3a12.7 12.7 0 0 0 8.5-3 1.4 1.4 0 0 1 1.8 2.2 15.4 15.4 0 0 1 -10.3 3.6z"/><path d="m51.3 67a1.7 1.7 0 0 0 -1.2.4 12.9 12.9 0 0 1 -8.4 3h-.3c-3.6 0-10.7-2-11-6.4a38.7 38.7 0 0 1 -.3-4.8c0-12.9 7.3-24.7 15.3-24.7a1.8 1.8 0 0 0 1.7-1.7 1.7 1.7 0 0 0 -1.7-1.6c-9.9 0-18.6 13.1-18.6 28a45.3 45.3 0 0 0 .3 5.2c.5 6.4 8.8 9.4 14.3 9.4h.3a15.9 15.9 0 0 0 10.5-3.8 1.4 1.4 0 0 0 .6-1.1 1.7 1.7 0 0 0 -1.5-1.9zm-5.9-35.4a1.1 1.1 0 0 1 1.1 1.1 1 1 0 0 1 -1.1 1.1c-8.3 0-15.9 12.1-15.9 25.3a27 27 0 0 0 .4 4.9c.3 4.7 7.8 6.8 11.5 6.8h.3a13 13 0 0 0 8.8-3.1 1.1 1.1 0 0 1 .8-.2.8.8 0 0 1 .7.4 1.1 1.1 0 0 1 .3.8 1 1 0 0 1 -.4.7 15.4 15.4 0 0 1 -10.2 3.6h-.3c-5.3 0-13.3-2.8-13.8-8.8a46.7 46.7 0 0 1 -.3-5.2c0-14.6 8.5-27.5 18.1-27.5z"/><path d="m43.1 60.6h-.2l-1.7-.2a3.5 3.5 0 0 1 -2.8-3.3v-.5c0-6.9 3.6-11.6 6.2-12.7a1.3 1.3 0 0 1 1.7.6 1.4 1.4 0 0 1 -.6 1.8c-1.6.7-4.6 4.5-4.6 10.3v.5a.7.7 0 0 0 .6.7l1.2.2h.2a5.8 5.8 0 0 0 1.8-.4 1.3 1.3 0 0 1 1.7.6 1.4 1.4 0 0 1 -.4 1.7 6.7 6.7 0 0 1 -3.1.7z"/><path d="m46.9 57.9a1.7 1.7 0 0 0 -2.2-.6 3.2 3.2 0 0 1 -1.6.4h-1.3a.6.6 0 0 1 -.5-.6v-.4c0-5.6 3-9.4 4.5-10.1a1.7 1.7 0 0 0 .8-2.1 1.6 1.6 0 0 0 -2.1-.8c-2.6 1.2-6.3 6-6.3 13v.5a3.7 3.7 0 0 0 2.9 3.6l1.8.2h.3a6.8 6.8 0 0 0 3.1-.8 1.7 1.7 0 0 0 .6-2.3zm-3.8 2.4h-1.8a3.2 3.2 0 0 1 -2.5-3.1v-.5c0-6.7 3.5-11.4 5.9-12.5h.5a1 1 0 0 1 .9.6 1 1 0 0 1 -.5 1.4c-1.6.7-4.7 4.7-4.7 10.7v.4a.9.9 0 0 0 .8 1l1.2.2h.3a4.5 4.5 0 0 0 1.9-.5 1.4 1.4 0 0 1 .9.3 1 1 0 0 1 .1 1.5 6 6 0 0 1 -3 .5z"/><path d="m64.9 66.9a10.3 10.3 0 0 1 -6.8-2.2 1.4 1.4 0 0 1 -.3-1.9 1.3 1.3 0 0 1 1.9-.2 8.8 8.8 0 0 0 5.4 1.6 8.8 8.8 0 0 0 5.7-1.7c1-.8 1-1.7.9-3.5v-.9c0-10-5.5-18-10.2-18a1.4 1.4 0 0 1 -1.2-1.5 1.5 1.5 0 0 1 1.2-1.3c6.1 0 13 8.9 13 20.8v.8c0 1.9.1 4-1.9 5.7s-6.3 2.3-7.4 2.3z"/><path d="m61.5 37.1a1.5 1.5 0 0 0 -1.4 1.4 1.6 1.6 0 0 0 1.4 1.8c4.5 0 9.9 7.9 9.9 17.8v.9c.1 1.7.1 2.5-.8 3.3a8.9 8.9 0 0 1 -5.5 1.6 8 8 0 0 1 -5.2-1.6 1.7 1.7 0 0 0 -1.2-.3 2.4 2.4 0 0 0 -1.1.6 1.7 1.7 0 0 0 .3 2.3 11.7 11.7 0 0 0 7 2.3h.3c1 0 5-.2 7.5-2.4s2-4 2-5.9v-.8c0-12-7-21-13.2-21zm3.4 29.5a10.7 10.7 0 0 1 -6.7-2.1 1.2 1.2 0 0 1 -.1-1.6c.1-.2.4-.3.7-.4h.1a1.1 1.1 0 0 1 .7.3 8.4 8.4 0 0 0 5.5 1.7 10 10 0 0 0 5.8-1.8c1.1-.9 1.1-1.9 1.1-3.7v-.9c0-8.4-4.7-18.4-10.5-18.4a1 1 0 0 1 -1.1-1 1.1 1.1 0 0 1 1.1-1.1c6 0 12.6 8.8 12.6 20.5v.8c.1 1.8.1 3.8-1.7 5.4s-6.2 2.3-7.3 2.3z"/><path d="m65.4 73.4a15 15 0 0 1 -10.3-3.7 1.4 1.4 0 0 1 1.7-2.1 13.4 13.4 0 0 0 8.6 3h.3c3.7 0 11-2 11.3-6.6a39.1 39.1 0 0 0 .3-4.9c0-13-7.4-24.9-15.6-24.9a1.4 1.4 0 0 1 0-2.8c9.8 0 18.4 13 18.4 27.8a31.2 31.2 0 0 1 -.4 5.2c-.5 6.2-8.6 9.1-14 9.1z"/><path d="m61.7 31.1a1.7 1.7 0 0 0 -1.6 1.7 1.6 1.6 0 0 0 1.6 1.6c8 0 15.3 11.8 15.3 24.7a20.2 20.2 0 0 1 -.3 4.9c-.3 4.4-7.4 6.3-11 6.3h-.3a13 13 0 0 1 -8.4-2.8 1.6 1.6 0 0 0 -1.2-.4 1.7 1.7 0 0 0 -1.5 1.8 2.4 2.4 0 0 0 .6 1.1 16.6 16.6 0 0 0 10.5 3.7h.3c5.5 0 13.8-3 14.3-9.3a47.3 47.3 0 0 0 .4-5.3c0-14.9-8.8-28-18.7-28zm4.1 42h-.3a15 15 0 0 1 -10.2-3.6 1 1 0 0 1 -.4-.7 1.9 1.9 0 0 1 .2-.8.9.9 0 0 1 .8-.4h.1a1 1 0 0 1 .7.2 14.1 14.1 0 0 0 8.8 3.1h.3c3.7 0 11.2-2.1 11.5-6.9a20.5 20.5 0 0 0 .3-4.9c0-13.3-7.5-25.3-15.8-25.3a1.1 1.1 0 0 1 0-2.2c9.6 0 18.1 12.8 18.1 27.5a29.2 29.2 0 0 1 -.4 5.1c-.5 6.1-8.5 8.9-13.7 8.9z"/><path d="m64 60.6a6.7 6.7 0 0 1 -3.1-.7 1.3 1.3 0 0 1 -.5-1.8 1.2 1.2 0 0 1 1.8-.5 5.3 5.3 0 0 0 1.8.4h.2l1.2-.2c.3 0 .6-.4.6-.7v-.5c0-5.8-3-9.7-4.6-10.3a1.4 1.4 0 0 1 -.6-1.8 1.3 1.3 0 0 1 1.7-.6c2.6 1.1 6.2 5.8 6.2 12.7v.5a3.5 3.5 0 0 1 -2.8 3.3l-1.7.2z"/><path d="m62.6 43.6a1.7 1.7 0 0 0 -2.2.8 1.7 1.7 0 0 0 .8 2.1c1.5.7 4.5 4.5 4.5 10.1v.4a.6.6 0 0 1 -.5.6h-1.4a2.8 2.8 0 0 1 -1.5-.4 1.6 1.6 0 0 0 -2.2.7 1.6 1.6 0 0 0 .7 2.1 6.9 6.9 0 0 0 3.2.8h.1l1.8-.2a3.9 3.9 0 0 0 3-3.6v-.5c0-6.9-3.7-11.7-6.3-12.9zm-2 1.4a1.3 1.3 0 0 1 .3-.8l.3-.2h.1a1.1 1.1 0 0 1 1.1.2c2.5 1.1 6 5.7 6 12.5v.5a3.2 3.2 0 0 1 -2.5 3l-1.7.2h-.2a6.6 6.6 0 0 1 -3-.7 1.2 1.2 0 0 1 -.4-.8 1.1 1.1 0 0 1 1-1.2h.4a3.4 3.4 0 0 0 2 .4h1.4a1.2 1.2 0 0 0 .9-1.1v-.4c0-5.9-3.2-9.9-4.8-10.6l-.5-.2a2 2 0 0 1 -.4-.8z"/></g></svg>