<svg height="31.9mm" viewBox="0 0 323.7 90.5" width="114.2mm" xmlns="http://www.w3.org/2000/svg" xmlns:xlink="http://www.w3.org/1999/xlink"><linearGradient id="a" gradientUnits="userSpaceOnUse" x1="5.29" x2="64.26" y1="82" y2="32.63"><stop offset="0" stop-color="#331b85"/><stop offset=".18" stop-color="#223aa4"/><stop offset=".38" stop-color="#1356c0"/><stop offset=".59" stop-color="#096ad3"/><stop offset=".79" stop-color="#0276df"/><stop offset="1" stop-color="#007ae3"/></linearGradient><path d="m88.5 57.1c-.9 10.6-5.9 20.3-15.9 25s-21.7 4.6-32.4 3.1c-12.4-1.6-23.5-4.7-28-17.5-3.4-9.4-3.2-20.4-2.6-30.2.4-6.7 1.7-13.2 4.9-19.2 4.9-9.1 15.1-10.1 24.3-10.5 3 0 6 0 9 .2h3.2a108.8 108.8 0 0 1 12.6 2c9.7 1.7 19.5 3.6 23.2 14.1s2.6 22.2 1.7 33z" fill="url(#a)"/><g fill="#fff"><path d="m50.7 8.2v40.1a1.7 1.7 0 0 1 -1.2 1.8h-.2a1.8 1.8 0 0 1 -1.2-1.3v-.5c-.1 0-.1-.1-.1-.2v-40.1h2.7z"/><path d="m50.7 8.2h-.2v40.3c-.2.8-.6 1.4-1.1 1.4l-.4-.2a2 2 0 0 1 -.7-1.2v-40.4h-.5v40.1.2a2.1 2.1 0 0 0 1.2 1.9h.8a2.2 2.2 0 0 0 1.2-1.9v-40.1z"/><path d="m53.6 52.7-.7-.2-4.2-2.6a1.3 1.3 0 0 1 -.3-1.9 1.4 1.4 0 0 1 1.7-.4l4.2 2.6a1.4 1.4 0 0 1 .4 1.9 1.1 1.1 0 0 1 -1.1.6z"/><path d="m54.4 50-3.4-2.1-.3-.2h-.2l-.3-.2-.6-.2h-.6l-.7.4h-.1l-.2.2-.2.3v.2c0 .1-.1.1-.1.2a1.3 1.3 0 0 0 .1.6 1.4 1.4 0 0 0 .7 1l.4.3h.2l.3.2 3.3 2a1.6 1.6 0 0 0 .9.3 1.4 1.4 0 0 0 1.3-.8 1.5 1.5 0 0 0 -.5-2.2zm-1.4 2.2-3-1.9h-.6l-.4-.3h-.2a1.5 1.5 0 0 1 -.5-.6v-.5l.2-.4a.1.1 0 0 1 .1-.1 1 1 0 0 1 .5-.4h.3l.6.2.5.3.2.2h.4l3.1 1.9a1.8 1.8 0 0 1 .5.7v.2a1.4 1.4 0 0 1 -.2.6 1 1 0 0 1 -1.5.1z"/><path d="m45.3 52.7a1.3 1.3 0 0 1 -1.4-1.3 1.3 1.3 0 0 1 .6-1.2l4.2-2.6a1.4 1.4 0 0 1 1.7 2.2h-.2l-4.2 2.7z"/><path d="m51.1 48.5a.3.3 0 0 1 -.1-.2v-.2l-.2-.2c0-.1 0-.1-.1-.1v-.2h-.1l-.7-.4h-.4l-.8.2-.3.2h-.4l-.2.2-3.4 2.2a1.6 1.6 0 0 0 -.8 1.4 1.6 1.6 0 0 0 1.6 1.6 1.4 1.4 0 0 0 .9-.3l3.3-2 .3-.2.3-.2.3-.2a1.4 1.4 0 0 0 .7-1 1.3 1.3 0 0 0 .1-.6zm-2.1 1.8h-.1l-3.1 1.9a1.1 1.1 0 0 1 -1.5-.3.9.9 0 0 1 .3-1.4l3.1-2h.1l.3-.2h.2l.3-.2.3-.2.5-.2h.2c.3.1.6.2.7.5l.2.3a1.1 1.1 0 0 1 -.5 1.2l-.6.3h-.4z"/><path d="m38.1 62.7h-.3c-1.1 0-4.9-.1-7.4-2.3s-1.9-3.8-1.9-5.6v-.9c0-11.9 6.9-20.7 13-20.7a1.4 1.4 0 0 1 1.5 1.2 1.4 1.4 0 0 1 -1.3 1.5h-.2c-4.6 0-10.2 8-10.2 18v.9c0 1.8 0 2.7.9 3.6a9.7 9.7 0 0 0 5.7 1.6 8.2 8.2 0 0 0 5.4-1.6 1.3 1.3 0 0 1 1.9.3 1.3 1.3 0 0 1 -.2 1.9 10.7 10.7 0 0 1 -6.9 2.1z"/><path d="m44.3 57.8a1.6 1.6 0 0 0 -1.2.4 7.7 7.7 0 0 1 -5.1 1.5c-1.7.1-4.2-.3-5.6-1.6s-.9-1.5-.9-3.3v-.9c0-9.8 5.5-17.8 10-17.8.1.1.2.1.4 0a1.7 1.7 0 0 0 1.4-1.8 1.6 1.6 0 0 0 -1.8-1.4c-6.2 0-13.2 9-13.2 21v.9c0 1.9-.1 4 1.9 5.8s6.5 2.4 7.6 2.4h.3a10.5 10.5 0 0 0 7-2.3 1.7 1.7 0 0 0 .6-1 1.8 1.8 0 0 0 -1.4-1.9zm-6.2 4.7h-.3c-1.1 0-4.8-.1-7.2-2.3s-1.8-3.6-1.8-5.4v-.8c0-11.8 6.7-20.6 12.7-20.6a1.1 1.1 0 0 1 0 2.2c-5.8 0-10.5 10-10.5 18.3v.9c-.1 1.9-.1 2.9 1 3.8a9.4 9.4 0 0 0 5.8 1.7 8.6 8.6 0 0 0 5.6-1.7 1.1 1.1 0 0 1 .8-.2.8.8 0 0 1 .7.4 1 1 0 0 1 -.2 1.5 9.9 9.9 0 0 1 -6.6 2.2z"/><path d="m37.5 69.2h-.3c-5.3 0-13.5-2.9-14-9.1a29.6 29.6 0 0 1 -.4-5.2c0-14.7 8.7-27.7 18.4-27.7a1.4 1.4 0 0 1 1.4 1.4 1.4 1.4 0 0 1 -1.4 1.4c-8.2 0-15.6 11.8-15.6 24.9a39.1 39.1 0 0 0 .3 4.9c.3 4.6 7.6 6.6 11.3 6.6h.3a13.4 13.4 0 0 0 8.6-3 1.3 1.3 0 0 1 1.9.2 1.4 1.4 0 0 1 -.1 1.9 15.7 15.7 0 0 1 -10.4 3.7z"/><path d="m47.1 62.9a1.5 1.5 0 0 0 -1.2.4 12.6 12.6 0 0 1 -8.4 2.9h-.3c-3.5 0-10.7-1.9-11-6.3a40.3 40.3 0 0 1 -.3-4.9c0-12.9 7.3-24.7 15.3-24.7a1.6 1.6 0 0 0 1.7-1.6 1.7 1.7 0 0 0 -1.7-1.7c-9.9 0-18.6 13.1-18.6 28a47.1 47.1 0 0 0 .3 5.3c.5 6.3 8.8 9.3 14.3 9.3h.3a15.9 15.9 0 0 0 10.6-3.8 1.2 1.2 0 0 0 .5-1 1.7 1.7 0 0 0 -1.5-1.9zm-5.8-35.4a1.1 1.1 0 0 1 0 2.2c-8.4 0-15.9 12-15.9 25.2a41.9 41.9 0 0 0 .3 5c.3 4.8 7.8 6.9 11.5 6.9h.3a14.1 14.1 0 0 0 8.8-3.1 1.1 1.1 0 0 1 .8-.3 2 2 0 0 1 .8.4 1.9 1.9 0 0 1 .2.8 1.2 1.2 0 0 1 -.4.8 15.5 15.5 0 0 1 -10.2 3.6h-.3c-5.2-.1-13.2-2.9-13.7-8.9a29.6 29.6 0 0 1 -.4-5.2c0-14.6 8.5-27.4 18.1-27.4z"/><path d="m39 56.5h-.2l-1.8-.2a3.4 3.4 0 0 1 -2.7-3.3v-.5c0-6.9 3.6-11.7 6.1-12.8a1.4 1.4 0 0 1 1.8.7 1.3 1.3 0 0 1 -.7 1.7c-1.6.7-4.6 4.6-4.6 10.4v.4a.9.9 0 0 0 .6.8h1.4a3.7 3.7 0 0 0 1.8-.4 1.4 1.4 0 0 1 1.8.7 1.4 1.4 0 0 1 -.5 1.6 6.4 6.4 0 0 1 -3 .9z"/><path d="m42.7 53.8a1.4 1.4 0 0 0 -2.1-.6 3.4 3.4 0 0 1 -1.7.3h-1.3a.5.5 0 0 1 -.4-.5v-.4c0-5.7 2.9-9.5 4.4-10.1a1.6 1.6 0 0 0 .8-2.1 1.5 1.5 0 0 0 -2.1-.8c-2.6 1.1-6.3 6-6.3 13v.4a3.6 3.6 0 0 0 2.9 3.5 6.2 6.2 0 0 0 1.9.2h.2a6.4 6.4 0 0 0 3.1-.7 1.6 1.6 0 0 0 .6-2.2zm-3.7 2.4h-.2l-1.7-.2a3.2 3.2 0 0 1 -2.5-3v-.5c0-6.8 3.5-11.5 6-12.6h.4a1 1 0 0 1 .4 2c-1.6.7-4.7 4.7-4.7 10.6v.4a1.1 1.1 0 0 0 .8 1.1h1.5a4.1 4.1 0 0 0 1.9-.4 1 1 0 0 1 1 .3 1.1 1.1 0 0 1 0 1.5 5.9 5.9 0 0 1 -2.9.8z"/><path d="m60.7 62.7a11 11 0 0 1 -6.8-2.1 1.3 1.3 0 0 1 -.2-1.9 1.4 1.4 0 0 1 1.9-.3 7.9 7.9 0 0 0 5.4 1.6 9.2 9.2 0 0 0 5.6-1.6c1-.9 1-1.8 1-3.6v-.9c0-10-5.6-18-10.2-18a1.4 1.4 0 0 1 -1.3-1.5 1.4 1.4 0 0 1 1.3-1.2c6.1 0 12.9 8.9 12.9 20.7v.9c0 1.8.1 3.9-1.8 5.6s-6.3 2.3-7.5 2.3z"/><path d="m70.5 54.8v-.9c0-12-6.9-21-13.2-21a1.7 1.7 0 0 0 -1.4 1.5 1.6 1.6 0 0 0 1.4 1.8c4.6 0 10 7.9 10 17.7v.9c0 1.8 0 2.6-.9 3.3a9 9 0 0 1 -5.5 1.7 8.9 8.9 0 0 1 -5.2-1.6 1.2 1.2 0 0 0 -1.2-.3 1.4 1.4 0 0 0 -1.1.6 1.7 1.7 0 0 0 .3 2.3 11 11 0 0 0 7 2.2h.3c1.1 0 5-.2 7.6-2.4s1.9-3.9 1.9-5.8zm-9.8 7.7a10.5 10.5 0 0 1 -6.6-2.2 1.1 1.1 0 0 1 .5-1.9h.1l.7.2a8.4 8.4 0 0 0 5.5 1.7 9.5 9.5 0 0 0 5.9-1.7c1-.9 1-1.9 1-3.8v-.9c0-8.3-4.7-18.3-10.5-18.3a1.1 1.1 0 1 1 0-2.2c6 0 12.7 8.8 12.7 20.5v.9c0 1.8.1 3.8-1.8 5.4s-6.2 2.3-7.3 2.3z"/><path d="m61.2 69.2a15.6 15.6 0 0 1 -10.3-3.6 1.4 1.4 0 0 1 -.2-2 1.5 1.5 0 0 1 2-.2 12.7 12.7 0 0 0 8.5 3h.3c3.7 0 11-2 11.3-6.5a20.5 20.5 0 0 0 .3-4.9c.1-13.1-7.3-25-15.5-25a1.4 1.4 0 1 1 -.1-2.7h.1c9.7 0 18.3 12.9 18.3 27.7a44.1 44.1 0 0 1 -.3 5.2c-.5 6.2-8.7 9.1-14.1 9.1z"/><path d="m70.6 35.4c-3.4-5.2-8.1-8.4-13.1-8.4a1.6 1.6 0 0 0 -1.6 1.6 1.7 1.7 0 0 0 1.6 1.7c8.1 0 15.4 11.7 15.4 24.7a38.7 38.7 0 0 1 -.3 4.8c-.4 4.4-7.5 6.4-11.1 6.4h-.3a13.1 13.1 0 0 1 -8.4-3 1.5 1.5 0 0 0 -1.1-.4 1.8 1.8 0 0 0 -1.6 1.8 2.4 2.4 0 0 0 .6 1.1 15.7 15.7 0 0 0 10.5 3.7h.3c5.5-.1 13.8-3 14.3-9.4a30.4 30.4 0 0 0 .4-5.2 35.9 35.9 0 0 0 -5.6-19.4zm-9 33.5h-.3a15.8 15.8 0 0 1 -10.2-3.5 1.2 1.2 0 0 1 -.4-.8 1.1 1.1 0 0 1 .3-.8 1 1 0 0 1 .7-.4h.1a.9.9 0 0 1 .7.3 13.4 13.4 0 0 0 8.8 3h.3c3.7 0 11.2-2.1 11.6-6.8a40.3 40.3 0 0 0 .3-4.9c0-13.2-7.6-25.2-15.9-25.2a1.1 1.1 0 0 1 -1.1-1.1 1.1 1.1 0 0 1 1.1-1.2c9.6 0 18.1 12.9 18.1 27.5a45.3 45.3 0 0 1 -.3 5.2c-.5 5.9-8.5 8.7-13.8 8.7z"/><path d="m59.8 56.5a6.8 6.8 0 0 1 -3.1-.8 1.4 1.4 0 0 1 -.5-1.8 1.4 1.4 0 0 1 1.8-.5 3.9 3.9 0 0 0 1.8.4h1.4a.8.8 0 0 0 .6-.8v-.4c0-5.8-3-9.7-4.6-10.4a1.3 1.3 0 0 1 -.6-1.7 1.3 1.3 0 0 1 1.7-.7c2.6 1.1 6.2 5.9 6.2 12.8v.4a3.5 3.5 0 0 1 -2.7 3.3l-1.8.2z"/><path d="m58.4 39.5a1.5 1.5 0 0 0 -2.1.8 1.6 1.6 0 0 0 .8 2.1c1.5.6 4.4 4.4 4.4 10.1v.4a.5.5 0 0 1 -.4.5h-1.4a4.1 4.1 0 0 1 -1.6-.3 1.5 1.5 0 0 0 -2.2.6 1.7 1.7 0 0 0 .7 2.2 7.1 7.1 0 0 0 3.2.7h.2a4.7 4.7 0 0 0 1.7-.2 3.6 3.6 0 0 0 3-3.5v-.5c0-6.9-3.7-11.8-6.3-12.9zm-1.9 1.3a.7.7 0 0 1 .2-.7l.4-.3a1.1 1.1 0 0 1 1.1.1c2.5 1.1 6 5.8 6 12.6v.4a3.2 3.2 0 0 1 -2.5 3.1h-1.9a5.8 5.8 0 0 1 -2.9-.6 1.1 1.1 0 0 1 -.5-.9 1 1 0 0 1 1-1.1l.5.2a4.1 4.1 0 0 0 1.9.4h1.4a1.2 1.2 0 0 0 .9-1.1v-.4c0-6-3.1-9.9-4.8-10.7l-.4-.2a.9.9 0 0 1 -.4-.8z"/></g><path d="m147.2 66v-34.7l-2.9 6.7-12.5 28h-1.8l-12.5-28-2.9-6.7v34.7h-2.1v-38.8h2.3l16.1 35.9 16.2-35.9h2.3v38.8z" fill="#007ae3"/><path d="m149.4 67.7h-2.2a1.6 1.6 0 0 1 -1.6-1.7v-26.6l-12.3 27.3a1.8 1.8 0 0 1 -1.6 1h-1.7a1.8 1.8 0 0 1 -1.6-1l-12.2-27.2v26.5a1.6 1.6 0 0 1 -1.7 1.7h-2.1a1.7 1.7 0 0 1 -1.7-1.7v-38.8a1.8 1.8 0 0 1 1.7-1.7h2.3a1.8 1.8 0 0 1 1.6 1l14.5 32.5 14.6-32.5a1.8 1.8 0 0 1 1.6-1h2.3a1.7 1.7 0 0 1 1.7 1.7v38.8a1.7 1.7 0 0 1 -1.6 1.7z" fill="#007ae3"/><path d="m172 43.2a9.8 9.8 0 0 1 9.3 5.6l.2-4.8h1.9v22h-1.9l-.2-4.7a9.9 9.9 0 0 1 -9.3 5.5c-6 0-10.8-4.8-10.8-11.8s4.8-11.8 10.8-11.8zm.4 21.7c4.9 0 9-3.6 9-9.9s-4.1-9.9-9-9.9-9.1 3.6-9.1 9.9 4.1 9.9 9.1 9.9z" fill="#007ae3"/><path d="m172 68.5c-7.1 0-12.5-5.8-12.5-13.5s5.3-13.5 12.5-13.5a12.6 12.6 0 0 1 7.8 2.6v-.2a1.6 1.6 0 0 1 1.7-1.6h1.9a1.6 1.6 0 0 1 1.7 1.7v22a1.6 1.6 0 0 1 -1.7 1.7h-1.9a1.7 1.7 0 0 1 -1.7-1.6v-.2a12 12 0 0 1 -7.8 2.6zm.4-21.7c-4.4 0-7.4 3.3-7.4 8.2s3 8.2 7.4 8.2 7.3-2.5 7.3-8.2-3.7-8.2-7.3-8.2z" fill="#007ae3"/><path d="m197.4 54.2 11.7-10.1h2.6l-11.9 10.3 12 11.7h-2.7l-11.7-11.5v11.4h-2.1v-38.8h2.1z" fill="#007ae3"/><path d="m211.7 67.7h-2.6a1.3 1.3 0 0 1 -1.2-.5l-8.9-8.5v7.4a1.7 1.7 0 0 1 -1.6 1.7h-2.2a1.8 1.8 0 0 1 -1.7-1.7v-38.9a1.8 1.8 0 0 1 1.7-1.7h2.2a1.7 1.7 0 0 1 1.6 1.7v23.1l8.9-7.6a1.5 1.5 0 0 1 1.1-.4h2.6a1.7 1.7 0 0 1 1.7 1.7 2.1 2.1 0 0 1 -.5 1.3l-10.6 9 10.7 10.5a1.7 1.7 0 0 1 .4 1.9 1.8 1.8 0 0 1 -1.6 1z" fill="#007ae3"/><path d="m249.6 66-4.6-11.5h-19l-4.7 11.5h-2.3l15.5-38.8h1.9l15.5 38.8zm-14.1-35.6-8.7 22h17.3z" fill="#007ae3"/><path d="m251.9 67.7h-2.3a1.8 1.8 0 0 1 -1.6-1l-4.3-10.5h-16.7l-4.3 10.5a1.5 1.5 0 0 1 -1.5 1h-2.2a1.9 1.9 0 0 1 -1.4-.7 1.5 1.5 0 0 1 -.1-1.6l15.5-38.8a1.6 1.6 0 0 1 1.5-1.1h1.9a1.7 1.7 0 0 1 1.6 1.1l15.5 38.8a1.8 1.8 0 0 1 -.1 1.6 2.1 2.1 0 0 1 -1.5.7zm-22.7-16.9h12.5l-6.2-15.8z" fill="#007ae3"/><path d="m261.4 36.8v-3.4h2.2v3.4zm0 29.2v-22h2.2v22z" fill="#007ae3"/><path d="m263.6 67.7h-2.2a1.6 1.6 0 0 1 -1.6-1.7v-22a1.6 1.6 0 0 1 1.6-1.7h2.2a1.7 1.7 0 0 1 1.7 1.7v22a1.7 1.7 0 0 1 -1.7 1.7zm0-29.2h-2.2a1.7 1.7 0 0 1 -1.6-1.7v-3.4a1.7 1.7 0 0 1 1.6-1.7h2.2a1.8 1.8 0 0 1 1.7 1.7v3.4a1.8 1.8 0 0 1 -1.7 1.7z" fill="#007ae3"/><path d="m277.1 52.9v13.1h-2.1v-22h1.9v4.8a9.6 9.6 0 0 1 8.4-5.6v2.3a7.7 7.7 0 0 0 -8.3 7.2z" fill="#007ae3"/><path d="m277.1 67.7h-2.1a1.6 1.6 0 0 1 -1.7-1.7v-22a1.7 1.7 0 0 1 1.6-1.7h2a1.7 1.7 0 0 1 1.7 1.6 11.8 11.8 0 0 1 6.8-2.5 1.7 1.7 0 0 1 1.2.5 1.3 1.3 0 0 1 .5 1.2v2.3a1.8 1.8 0 0 1 -.5 1.2 2.1 2.1 0 0 1 -1.3.5 6.3 6.3 0 0 0 -4.6 1.6 5.5 5.5 0 0 0 -1.9 4.1v13.2a1.7 1.7 0 0 1 -1.7 1.7z" fill="#007ae3"/></svg>