<svg height="31.9mm" viewBox="0 0 448.5 90.5" width="158.2mm" xmlns="http://www.w3.org/2000/svg"><path d="m134.5 31v25.5h-5v-12.9l-8 9.5-7.9-9.5v12.9h-4.9v-25.5h.3l12.5 14.7 12.6-14.7z" fill="#d82625"/><path d="m137 56.5 13-25.5h.5l13 25.5h-5.3l-1.9-4h-12.1l-1.9 4zm9.6-8.3h7.3l-3.6-7.6z" fill="#d82625"/><path d="m182.1 56.5-10.7-11.5v11.6h-4.9v-25.5h4.9v12.9l10.2-12.9h6l-10.5 13.2 11.4 12.3z" fill="#d82625"/><path d="m197 35.3v6.4h12.4v4.4h-12.4v6h13.9v4.4h-18.7v-25.5h18.7v4.3z" fill="#d82625"/><path d="m220.8 56.5h-4.8v-25.5h11.6a10.3 10.3 0 0 1 3.5.6 7.7 7.7 0 0 1 2.8 1.9 7.5 7.5 0 0 1 1.8 2.8 8.4 8.4 0 0 1 .7 3.5 9.2 9.2 0 0 1 -1.5 5.1 7.7 7.7 0 0 1 -3.8 3.1c2.2 2.8 4.3 5.7 6.4 8.6h-5.9c-1-1.4-2.1-2.7-3-4.1s-1.9-2.7-2.9-4.1h-4.9zm0-12.5h6.8a3 3 0 0 0 1.3-.2 5.7 5.7 0 0 0 1.3-.8 4.2 4.2 0 0 0 .9-1.4 4.1 4.1 0 0 0 .4-1.9c0-.4-.1-.9-.1-1.3a4.7 4.7 0 0 0 -.6-1.5 3.2 3.2 0 0 0 -1.2-1.1 2.9 2.9 0 0 0 -2-.5h-6.8z" fill="#d82625"/><path d="m240.1 53.1 2.6-3.8a23 23 0 0 0 4 2.3 9 9 0 0 0 4.2 1 7.6 7.6 0 0 0 2.1-.3 8 8 0 0 0 1.6-.8 2.4 2.4 0 0 0 .9-1.1 2.1 2.1 0 0 0 .3-1.2 1.8 1.8 0 0 0 -.5-1.3 2.7 2.7 0 0 0 -1.2-.9l-1.9-.6-2.2-.4-1.8-.3-2.1-.6-2.1-.8a9.4 9.4 0 0 1 -1.9-1.4 6.7 6.7 0 0 1 -1.4-1.9 8.1 8.1 0 0 1 .4-6.5 8.4 8.4 0 0 1 2.3-2.3 9.6 9.6 0 0 1 3.2-1.2 12.4 12.4 0 0 1 3.3-.4l2.9.2 2.3.7a5.1 5.1 0 0 1 2.1 1l2.2 1.4-2.7 3.8a14.8 14.8 0 0 0 -3.5-1.9 10.4 10.4 0 0 0 -3.5-.7l-1.4.2-1.5.5a2.7 2.7 0 0 0 -1.2.9 2.1 2.1 0 0 0 -.5 1.3 1.6 1.6 0 0 0 .6 1.3 4.2 4.2 0 0 0 1.4.9l1.9.6 2 .5 1.8.3 2 .5 2.1.8a6.7 6.7 0 0 1 1.9 1.4 4.8 4.8 0 0 1 1.4 2 9.3 9.3 0 0 1 .5 2.9 8.4 8.4 0 0 1 -.7 3.5 9.1 9.1 0 0 1 -2 2.4 12.3 12.3 0 0 1 -3.1 1.4 13.1 13.1 0 0 1 -3.9.5 19.8 19.8 0 0 1 -3.5-.3 12.9 12.9 0 0 1 -2.8-.8 13.4 13.4 0 0 1 -2.4-1.2z" fill="#d82625"/><path d="m281.6 35.3v6.3h12.3v4.5h-12.3v10.4h-4.9v-25.5h18.8v4.3z" fill="#d82625"/><path d="m311.4 57a13.1 13.1 0 0 1 -5.2-1.1 12.9 12.9 0 0 1 -4.2-2.8 13.4 13.4 0 0 1 -2.8-4.2 13.2 13.2 0 0 1 0-10.3 13.5 13.5 0 0 1 7-7.1 13.2 13.2 0 0 1 10.3 0 14.2 14.2 0 0 1 7.1 7.1 14.1 14.1 0 0 1 0 10.3 13.5 13.5 0 0 1 -7.1 7 13 13 0 0 1 -5.1 1.1zm0-21.9a6.2 6.2 0 0 0 -3.3.7 8.6 8.6 0 0 0 -4.4 4.6 8.4 8.4 0 0 0 0 6.6 7.5 7.5 0 0 0 1.8 2.8 7 7 0 0 0 2.6 1.9 7.4 7.4 0 0 0 6.5 0 7 7 0 0 0 2.6-1.9 7.5 7.5 0 0 0 1.8-2.8 8.4 8.4 0 0 0 0-6.6 8.6 8.6 0 0 0 -4.4-4.6 6 6 0 0 0 -3.2-.7z" fill="#d82625"/><path d="m333.8 56.5h-4.9v-25.5h11.6a10.9 10.9 0 0 1 3.6.6 8 8 0 0 1 4.6 4.6 10.5 10.5 0 0 1 .6 3.6 8.4 8.4 0 0 1 -5.2 8.1l6.3 8.6h-5.8l-3-4c-1-1.4-1.9-2.8-2.9-4.1h-4.9zm0-12.5h6.7a3.4 3.4 0 0 0 1.4-.2 5.7 5.7 0 0 0 1.3-.8l.9-1.4a4 4 0 0 0 .3-1.9 5.7 5.7 0 0 0 -.1-1.3 4.7 4.7 0 0 0 -.6-1.5 3.8 3.8 0 0 0 -1.1-1.1 3.3 3.3 0 0 0 -2.1-.5h-6.7z" fill="#d82625"/><path d="m384.3 52.2v4.3h-18.4v-25.5h4.9v21.2z" fill="#d82625"/><path d="m393 56.5h-4.9v-25.5h4.9z" fill="#d82625"/><path d="m404.1 35.3v6.3h12.3v4.5h-12.3v10.4h-4.8v-25.5h18.7v4.3z" fill="#d82625"/><path d="m426.9 35.3v6.4h12.3v4.4h-12.3v6h13.9v4.4h-18.8v-25.5h18.8v4.3z" fill="#d82625"/><path d="m60.8 9.4a120.5 120.5 0 0 0 -24.8-2.2c-9.2.4-19.3 1.3-24.3 10.5-3.2 6-4.4 12.5-4.8 19.1-.6 9.9-.8 20.9 2.5 30.3 4.5 12.8 15.7 15.9 28 17.5s22.5 1.6 32.5-3.1 15-14.4 15.9-25 1.9-22.5-1.8-33-13.4-12.4-23.2-14.1z" fill="#d82625"/><path d="m44.9 67h3.4v3.35h-3.4z" fill="#fff"/><path d="m40.9 63.1h3.4v3.35h-3.4z" fill="#fff"/><path d="m37 59.2h3.4v3.35h-3.4z" fill="#fff"/><path d="m33 55.2h3.3v3.35h-3.3z" fill="#fff"/><path d="m29.1 51.3h3.3v3.35h-3.3z" fill="#fff"/><path d="m29.1 39.4h3.3v3.35h-3.3z" fill="#fff"/><path d="m29.1 35.5h3.3v3.35h-3.3z" fill="#fff"/><path d="m29.1 27.6h3.3v3.35h-3.3z" fill="#fff"/><path d="m29.1 31.5h3.3v3.35h-3.3z" fill="#fff"/><path d="m33 43.4h3.3v3.35h-3.3z" fill="#fff"/><path d="m33 39.4h3.3v3.35h-3.3z" fill="#fff"/><path d="m33 35.5h3.3v3.35h-3.3z" fill="#fff"/><path d="m33 27.6h3.3v3.35h-3.3z" fill="#fff"/><path d="m33 31.5h3.3v3.35h-3.3z" fill="#fff"/><path d="m37 27.6h3.4v3.35h-3.4z" fill="#fff"/><path d="m37 31.5h3.4v3.35h-3.4z" fill="#fff"/><path d="m33 51.3h3.3v3.35h-3.3z" fill="#fff"/><path d="m37 51.3h3.4v3.35h-3.4z" fill="#fff"/><path d="m37 55.2h3.4v3.35h-3.4z" fill="#fff"/><path d="m40.9 55.2h3.4v3.35h-3.4z" fill="#fff"/><path d="m40.9 59.2h3.4v3.35h-3.4z" fill="#fff"/><path d="m44.9 63.1h3.4v3.35h-3.4z" fill="#fff"/><path d="m44.9 51.3h3.4v3.35h-3.4z" fill="#fff"/><path d="m40.9 51.3h3.4v3.35h-3.4z" fill="#d82625"/><path d="m48.8 51.3h3.4v3.35h-3.4z" fill="#d82625"/><path d="m48.8 55.2h3.4v3.35h-3.4z" fill="#d82625"/><path d="m37 35.5h3.4v3.35h-3.4z" fill="#d82625"/><path d="m37 39.4h3.4v3.35h-3.4z" fill="#d82625"/><path d="m37 43.4h3.4v3.35h-3.4z" fill="#d82625"/><path d="m29.1 43.4h3.3v3.35h-3.3z" fill="#d82625"/><path d="m56.7 39.4h3.4v3.35h-3.4z" fill="#d82625"/><path d="m56.7 43.4h3.4v3.35h-3.4z" fill="#d82625"/><path d="m44.9 55.2h3.4v3.35h-3.4z" fill="#fff"/><path d="m44.9 59.2h3.4v3.35h-3.4z" fill="#fff"/><path d="m25.2 43.4h3.3v3.35h-3.3z" fill="#fff"/><path d="m25.2 39.4h3.3v3.35h-3.3z" fill="#fff"/><path d="m25.2 35.5h3.3v3.35h-3.3z" fill="#fff"/><path d="m25.2 31.5h3.3v3.35h-3.3z" fill="#fff"/><path d="m40.9 43.4h3.4v3.35h-3.4z" fill="#d82625"/><g fill="#fff"><path d="m40.9 39.4h3.4v3.35h-3.4z"/><path d="m40.9 35.5h3.4v3.35h-3.4z"/><path d="m44.9 43.4h3.4v3.35h-3.4z"/><path d="m44.9 39.4h3.4v3.35h-3.4z"/><path d="m44.9 35.5h3.4v3.35h-3.4z"/><path d="m40.9 31.5h3.4v3.35h-3.4z"/><path d="m21.2 43.4h3.3v3.35h-3.3z"/><path d="m21.2 39.4h3.3v3.35h-3.3z"/><path d="m21.2 35.5h3.3v3.35h-3.3z"/><path d="m48.8 63.1h3.4v3.35h-3.4z"/><path d="m52.8 59.2h3.4v3.35h-3.4z"/><path d="m56.7 55.2h3.4v3.35h-3.4z"/><path d="m60.7 51.3h3.4v3.35h-3.4z"/><path d="m60.7 43.4h3.4v3.35h-3.4z"/><path d="m60.7 39.4h3.4v3.35h-3.4z"/><path d="m60.7 35.5h3.4v3.35h-3.4z"/><path d="m60.7 27.6h3.4v3.35h-3.4z"/><path d="m60.7 31.5h3.4v3.35h-3.4z"/><path d="m56.7 35.5h3.4v3.35h-3.4z"/><path d="m56.7 27.6h3.4v3.35h-3.4z"/><path d="m56.7 31.5h3.4v3.35h-3.4z"/><path d="m52.8 43.4h3.4v3.35h-3.4z"/><path d="m52.8 39.4h3.4v3.35h-3.4z"/><path d="m52.8 35.5h3.4v3.35h-3.4z"/><path d="m52.8 27.6h3.4v3.35h-3.4z"/><path d="m52.8 31.5h3.4v3.35h-3.4z"/><path d="m56.7 51.3h3.4v3.35h-3.4z"/></g><path d="m52.8 51.3h3.4v3.35h-3.4z" fill="#d82625"/><path d="m52.8 55.2h3.4v3.35h-3.4z" fill="#fff"/><path d="m48.8 59.2h3.4v3.35h-3.4z" fill="#fff"/><path d="m64.6 43.4h3.4v3.35h-3.4z" fill="#fff"/><path d="m64.6 39.4h3.4v3.35h-3.4z" fill="#fff"/><path d="m64.6 35.5h3.4v3.35h-3.4z" fill="#fff"/><path d="m64.6 31.5h3.4v3.35h-3.4z" fill="#fff"/><path d="m48.8 43.4h3.4v3.35h-3.4z" fill="#fff"/><path d="m33 47.3h3.3v3.35h-3.3z" fill="#d82625"/><path d="m37 47.3h3.4v3.35h-3.4z" fill="#d82625"/><path d="m29.1 47.3h3.3v3.35h-3.3z" fill="#d82625"/><path d="m56.7 47.3h3.4v3.35h-3.4z" fill="#d82625"/><path d="m40.9 47.3h3.4v3.35h-3.4z" fill="#d82625"/><path d="m44.9 47.3h3.4v3.35h-3.4z" fill="#d82625"/><path d="m60.7 47.3h3.4v3.35h-3.4z" fill="#d82625"/><path d="m52.8 47.3h3.4v3.35h-3.4z" fill="#d82625"/><path d="m48.8 47.3h3.4v3.35h-3.4z" fill="#d82625"/><path d="m48.8 39.4h3.4v3.35h-3.4z" fill="#fff"/><path d="m48.8 35.5h3.4v3.35h-3.4z" fill="#fff"/><path d="m48.8 31.5h3.4v3.35h-3.4z" fill="#fff"/><path d="m68.6 43.4h3.4v3.35h-3.4z" fill="#fff"/><path d="m68.6 39.4h3.4v3.35h-3.4z" fill="#fff"/><path d="m68.6 35.5h3.4v3.35h-3.4z" fill="#fff"/></svg>