<svg height="45.2mm" viewBox="0 0 202.1 128" width="71.3mm" xmlns="http://www.w3.org/2000/svg"><path d="m26.1 105v13.4h-2.6v-6.8l-4.2 5-4.2-5v6.8h-2.5v-13.4h.1l6.6 7.7 6.6-7.7z" fill="#d82625"/><path d="m27.4 118.4 6.9-13.4h.2l6.9 13.4h-2.8l-1-2.1h-6.4l-1 2.1zm5.1-4.4h3.8l-1.9-4z" fill="#d82625"/><path d="m51.1 118.4-5.6-6.1v6.1h-2.5v-13.4h2.5v6.8l5.3-6.8h3.2l-5.5 6.9 6 6.5z" fill="#d82625"/><path d="m59 107.2v3.4h6.5v2.3h-6.5v3.2h7.3v2.3h-9.9v-13.4h9.9v2.2z" fill="#d82625"/><path d="m71.5 118.4h-2.6v-13.4h6.1a6.3 6.3 0 0 1 1.9.3 4.5 4.5 0 0 1 1.4 1 3.1 3.1 0 0 1 1 1.5 5.2 5.2 0 0 1 .3 1.8 5 5 0 0 1 -.7 2.7 4.5 4.5 0 0 1 -2 1.6l3.3 4.5h-3.1l-1.6-2.1-1.5-2.2h-2.5zm0-6.6h4.2l.7-.4.5-.7a4.4 4.4 0 0 0 .2-1c0-.3-.1-.5-.1-.7l-.3-.8a1.7 1.7 0 0 0 -.6-.6 2.3 2.3 0 0 0 -1.1-.3h-3.5z" fill="#d82625"/><path d="m81.6 116.6 1.4-2a8.2 8.2 0 0 0 2 1.2 5.9 5.9 0 0 0 2.3.5h1.1l.8-.5.5-.5a1.3 1.3 0 0 0 .1-.6.8.8 0 0 0 -.2-.7 1.8 1.8 0 0 0 -.7-.5l-1-.3-1.1-.3h-1l-1.1-.3-1.1-.5a3 3 0 0 1 -1-.7 3.6 3.6 0 0 1 -.7-1 2.2 2.2 0 0 1 -.2-1.4 3.2 3.2 0 0 1 1.6-3.2 5.8 5.8 0 0 1 1.7-.8 5.2 5.2 0 0 1 1.7-.2h1.5l1.3.3 1.1.5 1.1.8-1.4 2-1.8-1a5.8 5.8 0 0 0 -1.9-.3h-.7l-.8.3a1 1 0 0 0 -.6.5.9.9 0 0 0 -.3.7.7.7 0 0 0 .3.6l.8.5 1 .3 1 .3h.9l1.1.3 1.1.4 1 .7a2.6 2.6 0 0 1 .7 1.1 4 4 0 0 1 .3 1.5 4.1 4.1 0 0 1 -.4 1.9 2.9 2.9 0 0 1 -1 1.2 6 6 0 0 1 -1.6.8 7.5 7.5 0 0 1 -2.1.2h-1.8l-1.5-.4-1.2-.7z" fill="#d82625"/><path d="m103.4 107.2v3.3h6.4v2.4h-6.4v5.5h-2.6v-13.4h9.9v2.2z" fill="#d82625"/><path d="m119 118.6a6.6 6.6 0 0 1 -4.9-2 10.7 10.7 0 0 1 -1.5-2.2 7.2 7.2 0 0 1 0-5.4 6.7 6.7 0 0 1 3.7-3.7 7.2 7.2 0 0 1 7.6 1.4 5.7 5.7 0 0 1 1.5 2.3 7.2 7.2 0 0 1 0 5.4 7 7 0 0 1 -3.7 3.7 8.1 8.1 0 0 1 -2.7.5zm0-11.5a3.3 3.3 0 0 0 -1.7.4 4.2 4.2 0 0 0 -2.3 2.4 4.3 4.3 0 0 0 0 3.5 6 6 0 0 0 .9 1.5 7.1 7.1 0 0 0 1.4 1 5 5 0 0 0 3.4 0 7.1 7.1 0 0 0 1.4-1 6 6 0 0 0 .9-1.5 4.3 4.3 0 0 0 0-3.5 4.2 4.2 0 0 0 -2.3-2.4 3.3 3.3 0 0 0 -1.7-.4z" fill="#d82625"/><path d="m130.8 118.4h-2.6v-13.4h6.1a5.8 5.8 0 0 1 1.9.3 4.1 4.1 0 0 1 2.4 2.4 5.8 5.8 0 0 1 .4 1.9 5 5 0 0 1 -.8 2.6 4.7 4.7 0 0 1 -2 1.7c1.1 1.4 2.2 3 3.3 4.5h-3l-1.6-2.1-1.5-2.2h-2.6zm0-6.6h4.2l.7-.4.5-.7a4.4 4.4 0 0 0 .2-1 1.5 1.5 0 0 0 -.1-.7 1.1 1.1 0 0 0 -.3-.8.9.9 0 0 0 -.6-.6 2 2 0 0 0 -1.1-.3h-3.5z" fill="#d82625"/><path d="m157.3 116.1v2.3h-9.6v-13.4h2.5v11.1z" fill="#d82625"/><path d="m161.9 118.4h-2.6v-13.4h2.6z" fill="#d82625"/><path d="m167.7 107.2v3.3h6.5v2.4h-6.5v5.5h-2.5v-13.4h9.8v2.2z" fill="#d82625"/><path d="m179.7 107.2v3.4h6.5v2.3h-6.5v3.2h7.3v2.3h-9.9v-13.4h9.9v2.2z" fill="#d82625"/><path d="m113.9 13a121.7 121.7 0 0 0 -24.8-2.2c-9.2.4-19.4 1.4-24.3 10.5-3.2 6-4.4 12.5-4.8 19.2-.6 9.8-.8 20.8 2.5 30.2 4.5 12.8 15.6 15.9 28 17.5 10.7 1.5 22.4 1.7 32.5-3.1s15-14.4 15.8-25 1.9-22.5-1.7-33-13.5-12.4-23.2-14.1z" fill="#d82625"/><path d="m98 70.7h3.4v3.35h-3.4z" fill="#fff"/><path d="m94 66.7h3.4v3.35h-3.4z" fill="#fff"/><path d="m90.1 62.8h3.4v3.35h-3.4z" fill="#fff"/><path d="m86.1 58.8h3.3v3.35h-3.3z" fill="#fff"/><path d="m82.2 54.9h3.3v3.35h-3.3z" fill="#fff"/><path d="m82.2 43h3.3v3.35h-3.3z" fill="#fff"/><path d="m82.2 39.1h3.3v3.35h-3.3z" fill="#fff"/><path d="m82.2 31.2h3.3v3.35h-3.3z" fill="#fff"/><path d="m82.2 35.2h3.3v3.35h-3.3z" fill="#fff"/><path d="m86.1 47h3.3v3.35h-3.3z" fill="#fff"/><path d="m86.1 43h3.3v3.35h-3.3z" fill="#fff"/><path d="m86.1 39.1h3.3v3.35h-3.3z" fill="#fff"/><path d="m86.1 31.2h3.3v3.35h-3.3z" fill="#fff"/><path d="m86.1 35.2h3.3v3.35h-3.3z" fill="#fff"/><path d="m90.1 31.2h3.4v3.35h-3.4z" fill="#fff"/><path d="m90.1 35.2h3.4v3.35h-3.4z" fill="#fff"/><path d="m86.1 54.9h3.3v3.35h-3.3z" fill="#fff"/><path d="m90.1 54.9h3.4v3.35h-3.4z" fill="#fff"/><path d="m90.1 58.8h3.4v3.35h-3.4z" fill="#fff"/><path d="m94 58.8h3.4v3.35h-3.4z" fill="#fff"/><path d="m94 62.8h3.4v3.35h-3.4z" fill="#fff"/><path d="m98 66.7h3.4v3.35h-3.4z" fill="#fff"/><path d="m98 54.9h3.4v3.35h-3.4z" fill="#fff"/><path d="m94 54.9h3.4v3.35h-3.4z" fill="#d82625"/><path d="m101.9 54.9h3.4v3.35h-3.4z" fill="#d82625"/><path d="m101.9 58.8h3.4v3.35h-3.4z" fill="#d82625"/><path d="m90.1 39.1h3.4v3.35h-3.4z" fill="#d82625"/><path d="m90.1 43h3.4v3.35h-3.4z" fill="#d82625"/><path d="m90.1 47h3.4v3.35h-3.4z" fill="#d82625"/><path d="m82.2 47h3.3v3.35h-3.3z" fill="#d82625"/><path d="m109.8 43h3.4v3.35h-3.4z" fill="#d82625"/><path d="m109.8 47h3.4v3.35h-3.4z" fill="#d82625"/><path d="m98 58.8h3.4v3.35h-3.4z" fill="#fff"/><path d="m98 62.8h3.4v3.35h-3.4z" fill="#fff"/><path d="m78.2 47h3.3v3.35h-3.3z" fill="#fff"/><path d="m78.2 43h3.3v3.35h-3.3z" fill="#fff"/><path d="m78.2 39.1h3.3v3.35h-3.3z" fill="#fff"/><path d="m78.2 35.2h3.3v3.35h-3.3z" fill="#fff"/><path d="m94 47h3.4v3.35h-3.4z" fill="#d82625"/><g fill="#fff"><path d="m94 43h3.4v3.35h-3.4z"/><path d="m94 39.1h3.4v3.35h-3.4z"/><path d="m98 47h3.4v3.35h-3.4z"/><path d="m98 43h3.4v3.35h-3.4z"/><path d="m98 39.1h3.4v3.35h-3.4z"/><path d="m94 35.2h3.4v3.35h-3.4z"/><path d="m74.3 47h3.3v3.35h-3.3z"/><path d="m74.3 43h3.3v3.35h-3.3z"/><path d="m74.3 39.1h3.3v3.35h-3.3z"/><path d="m101.9 66.7h3.4v3.35h-3.4z"/><path d="m105.8 62.8h3.4v3.35h-3.4z"/><path d="m109.8 58.8h3.4v3.35h-3.4z"/><path d="m113.7 54.9h3.4v3.35h-3.4z"/><path d="m113.7 47h3.4v3.35h-3.4z"/><path d="m113.7 43h3.4v3.35h-3.4z"/><path d="m113.7 39.1h3.4v3.35h-3.4z"/><path d="m113.7 31.2h3.4v3.35h-3.4z"/><path d="m113.7 35.1h3.4v3.35h-3.4z"/><path d="m109.8 39.1h3.4v3.35h-3.4z"/><path d="m109.8 31.2h3.4v3.35h-3.4z"/><path d="m109.8 35.1h3.4v3.35h-3.4z"/><path d="m105.8 47h3.4v3.35h-3.4z"/><path d="m105.8 43h3.4v3.35h-3.4z"/><path d="m105.8 39.1h3.4v3.35h-3.4z"/><path d="m105.8 31.2h3.4v3.35h-3.4z"/><path d="m105.8 35.1h3.4v3.35h-3.4z"/><path d="m109.8 54.9h3.4v3.35h-3.4z"/></g><path d="m105.8 54.9h3.4v3.35h-3.4z" fill="#d82625"/><path d="m105.8 58.8h3.4v3.35h-3.4z" fill="#fff"/><path d="m101.9 62.8h3.4v3.35h-3.4z" fill="#fff"/><path d="m117.7 47h3.4v3.35h-3.4z" fill="#fff"/><path d="m117.7 43h3.4v3.35h-3.4z" fill="#fff"/><path d="m117.7 39.1h3.4v3.35h-3.4z" fill="#fff"/><path d="m117.7 35.1h3.4v3.35h-3.4z" fill="#fff"/><path d="m101.9 47h3.4v3.35h-3.4z" fill="#fff"/><path d="m86.1 50.9h3.3v3.35h-3.3z" fill="#d82625"/><path d="m90.1 50.9h3.4v3.35h-3.4z" fill="#d82625"/><path d="m82.2 50.9h3.3v3.35h-3.3z" fill="#d82625"/><path d="m109.8 50.9h3.4v3.35h-3.4z" fill="#d82625"/><path d="m94 50.9h3.4v3.35h-3.4z" fill="#d82625"/><path d="m98 50.9h3.4v3.35h-3.4z" fill="#d82625"/><path d="m113.7 50.9h3.4v3.35h-3.4z" fill="#d82625"/><path d="m105.8 50.9h3.4v3.35h-3.4z" fill="#d82625"/><path d="m101.9 50.9h3.4v3.35h-3.4z" fill="#d82625"/><path d="m101.9 43h3.4v3.35h-3.4z" fill="#fff"/><path d="m101.9 39.1h3.4v3.35h-3.4z" fill="#fff"/><path d="m101.9 35.1h3.4v3.35h-3.4z" fill="#fff"/><path d="m121.6 47h3.4v3.35h-3.4z" fill="#fff"/><path d="m121.6 43h3.4v3.35h-3.4z" fill="#fff"/><path d="m121.6 39.1h3.4v3.35h-3.4z" fill="#fff"/></svg>