<svg height="82" viewBox="0 0 82 82" width="82" xmlns="http://www.w3.org/2000/svg"><g fill="none" transform="translate(.5 1)"><path d="m54.9 3c-8.1697188-1.57922599-16.4798613-2.31641605-24.8-2.2-9.2.4-19.4 1.4-24.3 10.5-3.2 6-4.4 12.5-4.8 19.2-.6 9.8-.8 20.8 2.5 30.2 4.5 12.8 15.6 15.9 28 17.5 10.7 1.5 22.4 1.7 32.5-3.1s15-14.4 15.8-25 1.9-22.5-1.7-33-13.5-12.4-23.2-14.1z" fill="#d82625"/><g fill="#fff"><path d="m39 60.7h3.4v3.35h-3.4z"/><path d="m35 56.7h3.4v3.35h-3.4z"/><path d="m31.1 52.8h3.4v3.35h-3.4z"/><path d="m27.1 48.8h3.3v3.35h-3.3z"/><path d="m23.2 44.9h3.3v3.35h-3.3z"/><path d="m23.2 33h3.3v3.35h-3.3z"/><path d="m23.2 29.1h3.3v3.35h-3.3z"/><path d="m23.2 21.2h3.3v3.35h-3.3z"/><path d="m23.2 25.2h3.3v3.35h-3.3z"/><path d="m27.1 37h3.3v3.35h-3.3z"/><path d="m27.1 33h3.3v3.35h-3.3z"/><path d="m27.1 29.1h3.3v3.35h-3.3z"/><path d="m27.1 21.2h3.3v3.35h-3.3z"/><path d="m27.1 25.2h3.3v3.35h-3.3z"/><path d="m31.1 21.2h3.4v3.35h-3.4z"/><path d="m31.1 25.2h3.4v3.35h-3.4z"/><path d="m27.1 44.9h3.3v3.35h-3.3z"/><path d="m31.1 44.9h3.4v3.35h-3.4z"/><path d="m31.1 48.8h3.4v3.35h-3.4z"/><path d="m35 48.8h3.4v3.35h-3.4z"/><path d="m35 52.8h3.4v3.35h-3.4z"/><path d="m39 56.7h3.4v3.35h-3.4z"/><path d="m39 44.9h3.4v3.35h-3.4z"/></g><path d="m35 44.9h3.4v3.35h-3.4z" fill="#d82625"/><path d="m42.9 44.9h3.4v3.35h-3.4z" fill="#d82625"/><path d="m42.9 48.8h3.4v3.35h-3.4z" fill="#d82625"/><path d="m31.1 29.1h3.4v3.35h-3.4z" fill="#d82625"/><path d="m31.1 33h3.4v3.35h-3.4z" fill="#d82625"/><path d="m31.1 37h3.4v3.35h-3.4z" fill="#d82625"/><path d="m23.2 37h3.3v3.35h-3.3z" fill="#d82625"/><path d="m50.8 33h3.4v3.35h-3.4z" fill="#d82625"/><path d="m50.8 37h3.4v3.35h-3.4z" fill="#d82625"/><path d="m39 48.8h3.4v3.35h-3.4z" fill="#fff"/><path d="m39 52.8h3.4v3.35h-3.4z" fill="#fff"/><path d="m19.2 37h3.3v3.35h-3.3z" fill="#fff"/><path d="m19.2 33h3.3v3.35h-3.3z" fill="#fff"/><path d="m19.2 29.1h3.3v3.35h-3.3z" fill="#fff"/><path d="m19.2 25.2h3.3v3.35h-3.3z" fill="#fff"/><path d="m35 37h3.4v3.35h-3.4z" fill="#d82625"/><g fill="#fff" transform="translate(15 21)"><path d="m20 12h3.4v3.35h-3.4z"/><path d="m20 8.1h3.4v3.35h-3.4z"/><path d="m24 16h3.4v3.35h-3.4z"/><path d="m24 12h3.4v3.35h-3.4z"/><path d="m24 8.1h3.4v3.35h-3.4z"/><path d="m20 4.2h3.4v3.35h-3.4z"/><path d="m.3 16h3.3v3.35h-3.3z"/><path d="m.3 12h3.3v3.35h-3.3z"/><path d="m.3 8.1h3.3v3.35h-3.3z"/><path d="m27.9 35.7h3.4v3.35h-3.4z"/><path d="m31.8 31.8h3.4v3.35h-3.4z"/><path d="m35.8 27.8h3.4v3.35h-3.4z"/><path d="m39.7 23.9h3.4v3.35h-3.4z"/><path d="m39.7 16h3.4v3.35h-3.4z"/><path d="m39.7 12h3.4v3.35h-3.4z"/><path d="m39.7 8.1h3.4v3.35h-3.4z"/><path d="m39.7.2h3.4v3.35h-3.4z"/><path d="m39.7 4.1h3.4v3.35h-3.4z"/><path d="m35.8 8.1h3.4v3.35h-3.4z"/><path d="m35.8.2h3.4v3.35h-3.4z"/><path d="m35.8 4.1h3.4v3.35h-3.4z"/><path d="m31.8 16h3.4v3.35h-3.4z"/><path d="m31.8 12h3.4v3.35h-3.4z"/><path d="m31.8 8.1h3.4v3.35h-3.4z"/><path d="m31.8.2h3.4v3.35h-3.4z"/><path d="m31.8 4.1h3.4v3.35h-3.4z"/><path d="m35.8 23.9h3.4v3.35h-3.4z"/></g><path d="m46.8 44.9h3.4v3.35h-3.4z" fill="#d82625"/><path d="m46.8 48.8h3.4v3.35h-3.4z" fill="#fff"/><path d="m42.9 52.8h3.4v3.35h-3.4z" fill="#fff"/><path d="m58.7 37h3.4v3.35h-3.4z" fill="#fff"/><path d="m58.7 33h3.4v3.35h-3.4z" fill="#fff"/><path d="m58.7 29.1h3.4v3.35h-3.4z" fill="#fff"/><path d="m58.7 25.1h3.4v3.35h-3.4z" fill="#fff"/><path d="m42.9 37h3.4v3.35h-3.4z" fill="#fff"/><path d="m27.1 40.9h3.3v3.35h-3.3z" fill="#d82625"/><path d="m31.1 40.9h3.4v3.35h-3.4z" fill="#d82625"/><path d="m23.2 40.9h3.3v3.35h-3.3z" fill="#d82625"/><path d="m50.8 40.9h3.4v3.35h-3.4z" fill="#d82625"/><path d="m35 40.9h3.4v3.35h-3.4z" fill="#d82625"/><path d="m39 40.9h3.4v3.35h-3.4z" fill="#d82625"/><path d="m54.7 40.9h3.4v3.35h-3.4z" fill="#d82625"/><path d="m46.8 40.9h3.4v3.35h-3.4z" fill="#d82625"/><path d="m42.9 40.9h3.4v3.35h-3.4z" fill="#d82625"/><path d="m42.9 33h3.4v3.35h-3.4z" fill="#fff"/><path d="m42.9 29.1h3.4v3.35h-3.4z" fill="#fff"/><path d="m42.9 25.1h3.4v3.35h-3.4z" fill="#fff"/><path d="m62.6 37h3.4v3.35h-3.4z" fill="#fff"/><path d="m62.6 33h3.4v3.35h-3.4z" fill="#fff"/><path d="m62.6 29.1h3.4v3.35h-3.4z" fill="#fff"/></g></svg>