<svg height="32.7mm" viewBox="0 0 303.5 92.6" width="107.1mm" xmlns="http://www.w3.org/2000/svg"><path d="m128.4 44.3v13.4h-2.6v-6.8l-4.2 5-4.2-5v6.8h-2.6v-13.4h.2l6.6 7.8 6.6-7.8z" fill="#d82625"/><path d="m129.7 57.7 6.8-13.4h.3l6.8 13.4h-2.7l-1-2.1h-6.4l-1 2.1zm5-4.3h3.9l-1.9-4z" fill="#d82625"/><path d="m153.4 57.7-5.6-6v6.1h-2.6v-13.4h2.6v6.8l5.3-6.8h3.2l-5.5 6.9 6 6.5z" fill="#d82625"/><path d="m161.2 46.6v3.3h6.5v2.4h-6.5v3.1h7.3v2.3h-9.8v-13.4h9.8v2.3z" fill="#d82625"/><path d="m173.7 57.7h-2.5v-13.4h6.1a6.3 6.3 0 0 1 1.9.3 7.1 7.1 0 0 1 1.4 1 13 13 0 0 1 1 1.5 5.8 5.8 0 0 1 .3 1.9 5 5 0 0 1 -.8 2.6 3.5 3.5 0 0 1 -2 1.6c1.2 1.5 2.3 3 3.4 4.6h-3.1a17.7 17.7 0 0 1 -1.6-2.2l-1.5-2.1h-2.6zm0-6.5h3.6l.7-.2a1.3 1.3 0 0 0 .7-.4 1.6 1.6 0 0 0 .4-.7 1.6 1.6 0 0 0 .2-1v-.7l-.3-.8-.7-.6a1.8 1.8 0 0 0 -1-.2h-3.6z" fill="#d82625"/><path d="m183.8 56 1.4-2 2.1 1.2a5.9 5.9 0 0 0 2.3.5l1-.2.9-.4a.9.9 0 0 0 .4-.6 1.4 1.4 0 0 0 .2-.6 1.9 1.9 0 0 0 -.2-.7l-.7-.5-1-.3-1.2-.2-.9-.2a2.3 2.3 0 0 1 -1.1-.3l-1.1-.4-1-.7a3.6 3.6 0 0 1 -.7-1 3.5 3.5 0 0 1 -.3-1.4 4.6 4.6 0 0 1 .5-2 3.7 3.7 0 0 1 2.9-1.9l1.7-.2h1.5l1.2.4 1.2.5 1.1.8-1.4 2a8.1 8.1 0 0 0 -1.8-1 4.3 4.3 0 0 0 -1.9-.4h-.7a1.1 1.1 0 0 0 -.8.3l-.7.4a1.9 1.9 0 0 0 -.2.7.9.9 0 0 0 .3.7 1.3 1.3 0 0 0 .7.4l1 .4 1.1.2.9.2 1.1.3 1.1.4 1 .7a4.1 4.1 0 0 1 .7 1.1 3.7 3.7 0 0 1 .3 1.5 5.8 5.8 0 0 1 -.4 1.8 4.5 4.5 0 0 1 -1.1 1.3 3.9 3.9 0 0 1 -1.6.7 6.4 6.4 0 0 1 -2 .3l-1.9-.2-1.4-.4-1.3-.6a3.6 3.6 0 0 0 -1.2-.6z" fill="#d82625"/><path d="m205.6 46.6v3.3h6.5v2.4h-6.5v5.4h-2.5v-13.4h9.8v2.3z" fill="#d82625"/><path d="m221.3 58a6.3 6.3 0 0 1 -2.7-.6 5.4 5.4 0 0 1 -2.2-1.5 5.7 5.7 0 0 1 -1.5-2.2 7.2 7.2 0 0 1 0-5.4 7 7 0 0 1 3.7-3.7 7.2 7.2 0 0 1 5.4 0 7.2 7.2 0 0 1 3.7 3.7 7.2 7.2 0 0 1 0 5.4 7 7 0 0 1 -3.7 3.7 6.6 6.6 0 0 1 -2.7.6zm0-11.5a4.7 4.7 0 0 0 -1.7.3 4.9 4.9 0 0 0 -2.4 2.5 5.3 5.3 0 0 0 0 3.5 7.1 7.1 0 0 0 1 1.4 4.5 4.5 0 0 0 1.4 1 4 4 0 0 0 3.4 0 4.5 4.5 0 0 0 1.4-1 4.2 4.2 0 0 0 .9-1.4 4.3 4.3 0 0 0 0-3.5 4 4 0 0 0 -4-2.8z" fill="#d82625"/><path d="m233.1 57.7h-2.6v-13.4h6.1a6.3 6.3 0 0 1 1.9.3 4.5 4.5 0 0 1 2.4 2.5 5.7 5.7 0 0 1 .3 1.8 5 5 0 0 1 -.7 2.7 4.5 4.5 0 0 1 -2 1.6l3.3 4.5h-3.1l-1.5-2.1-1.6-2.2h-2.5zm0-6.5h3.5l.7-.2a1 1 0 0 0 .7-.4l.5-.7a3 3 0 0 0 .2-1c0-.2-.1-.4-.1-.7l-.3-.8-.6-.6a2.2 2.2 0 0 0 -1.1-.2h-3.5z" fill="#d82625"/><path d="m259.6 55.4v2.3h-9.6v-13.4h2.5v11.1z" fill="#d82625"/><path d="m264.1 57.7h-2.5v-13.4h2.5z" fill="#d82625"/><path d="m270 46.6v3.3h6.5v2.4h-6.5v5.4h-2.6v-13.4h9.9v2.3z" fill="#d82625"/><path d="m281.9 46.6v3.3h6.5v2.4h-6.5v3.1h7.3v2.3h-9.8v-13.4h9.8v2.3z" fill="#d82625"/><path d="m67 10.4a115 115 0 0 0 -24.8-2.2c-9.2.3-19.4 1.3-24.3 10.5-3.2 5.9-4.4 12.4-4.8 19.1-.6 9.9-.8 20.9 2.5 30.2 4.5 12.9 15.6 15.9 28 17.6 10.7 1.4 22.4 1.6 32.4-3.1s15-14.5 15.9-25 1.9-22.5-1.7-33-13.5-12.4-23.2-14.1z" fill="#d82625"/><path d="m51 68h3.4v3.35h-3.4z" fill="#fff"/><path d="m47.1 64.1h3.4v3.35h-3.4z" fill="#fff"/><path d="m43.1 60.1h3.4v3.35h-3.4z" fill="#fff"/><path d="m39.2 56.2h3.3v3.35h-3.3z" fill="#fff"/><path d="m35.2 52.2h3.3v3.35h-3.3z" fill="#fff"/><path d="m35.2 40.4h3.3v3.35h-3.3z" fill="#fff"/><path d="m35.2 36.5h3.3v3.35h-3.3z" fill="#fff"/><path d="m35.2 28.6h3.3v3.35h-3.3z" fill="#fff"/><path d="m35.2 32.5h3.3v3.35h-3.3z" fill="#fff"/><path d="m39.2 44.3h3.3v3.35h-3.3z" fill="#fff"/><path d="m39.2 40.4h3.3v3.35h-3.3z" fill="#fff"/><path d="m39.2 36.5h3.3v3.35h-3.3z" fill="#fff"/><path d="m39.2 28.6h3.3v3.35h-3.3z" fill="#fff"/><path d="m39.2 32.5h3.3v3.35h-3.3z" fill="#fff"/><path d="m43.1 28.6h3.4v3.35h-3.4z" fill="#fff"/><path d="m43.1 32.5h3.4v3.35h-3.4z" fill="#fff"/><path d="m39.2 52.2h3.3v3.35h-3.3z" fill="#fff"/><path d="m43.1 52.2h3.4v3.35h-3.4z" fill="#fff"/><path d="m43.1 56.2h3.4v3.35h-3.4z" fill="#fff"/><path d="m47.1 56.2h3.4v3.35h-3.4z" fill="#fff"/><path d="m47.1 60.1h3.4v3.35h-3.4z" fill="#fff"/><path d="m51 64.1h3.4v3.35h-3.4z" fill="#fff"/><path d="m51 52.2h3.4v3.35h-3.4z" fill="#fff"/><path d="m47.1 52.2h3.4v3.35h-3.4z" fill="#d82625"/><path d="m55 52.2h3.4v3.35h-3.4z" fill="#d82625"/><path d="m55 56.2h3.4v3.35h-3.4z" fill="#d82625"/><path d="m43.1 36.5h3.4v3.35h-3.4z" fill="#d82625"/><path d="m43.1 40.4h3.4v3.35h-3.4z" fill="#d82625"/><path d="m43.1 44.3h3.4v3.35h-3.4z" fill="#d82625"/><path d="m35.2 44.3h3.3v3.35h-3.3z" fill="#d82625"/><path d="m62.9 40.4h3.4v3.35h-3.4z" fill="#d82625"/><path d="m62.9 44.3h3.4v3.35h-3.4z" fill="#d82625"/><path d="m51 56.2h3.4v3.35h-3.4z" fill="#fff"/><path d="m51 60.1h3.4v3.35h-3.4z" fill="#fff"/><path d="m31.3 44.3h3.3v3.35h-3.3z" fill="#fff"/><path d="m31.3 40.4h3.3v3.35h-3.3z" fill="#fff"/><path d="m31.3 36.5h3.3v3.35h-3.3z" fill="#fff"/><path d="m31.3 32.5h3.3v3.35h-3.3z" fill="#fff"/><path d="m47.1 44.3h3.4v3.35h-3.4z" fill="#d82625"/><g fill="#fff"><path d="m47.1 40.4h3.4v3.35h-3.4z"/><path d="m47.1 36.5h3.4v3.35h-3.4z"/><path d="m51 44.3h3.4v3.35h-3.4z"/><path d="m51 40.4h3.4v3.35h-3.4z"/><path d="m51 36.5h3.4v3.35h-3.4z"/><path d="m47.1 32.5h3.4v3.35h-3.4z"/><path d="m27.4 44.3h3.3v3.35h-3.3z"/><path d="m27.4 40.4h3.3v3.35h-3.3z"/><path d="m27.4 36.5h3.3v3.35h-3.3z"/><path d="m55 64.1h3.4v3.35h-3.4z"/><path d="m58.9 60.1h3.4v3.35h-3.4z"/><path d="m62.9 56.2h3.4v3.35h-3.4z"/><path d="m66.8 52.2h3.4v3.35h-3.4z"/><path d="m66.8 44.3h3.4v3.35h-3.4z"/><path d="m66.8 40.4h3.4v3.35h-3.4z"/><path d="m66.8 36.4h3.4v3.35h-3.4z"/><path d="m66.8 28.6h3.4v3.35h-3.4z"/><path d="m66.8 32.5h3.4v3.35h-3.4z"/><path d="m62.9 36.4h3.4v3.35h-3.4z"/><path d="m62.9 28.6h3.4v3.35h-3.4z"/><path d="m62.9 32.5h3.4v3.35h-3.4z"/><path d="m58.9 44.3h3.4v3.35h-3.4z"/><path d="m58.9 40.4h3.4v3.35h-3.4z"/><path d="m58.9 36.4h3.4v3.35h-3.4z"/><path d="m58.9 28.6h3.4v3.35h-3.4z"/><path d="m58.9 32.5h3.4v3.35h-3.4z"/><path d="m62.9 52.2h3.4v3.35h-3.4z"/></g><path d="m58.9 52.2h3.4v3.35h-3.4z" fill="#d82625"/><path d="m58.9 56.2h3.4v3.35h-3.4z" fill="#fff"/><path d="m55 60.1h3.4v3.35h-3.4z" fill="#fff"/><path d="m70.8 44.3h3.4v3.35h-3.4z" fill="#fff"/><path d="m70.8 40.4h3.4v3.35h-3.4z" fill="#fff"/><path d="m70.8 36.4h3.4v3.35h-3.4z" fill="#fff"/><path d="m70.8 32.5h3.4v3.35h-3.4z" fill="#fff"/><path d="m55 44.3h3.4v3.35h-3.4z" fill="#fff"/><path d="m39.2 48.3h3.3v3.35h-3.3z" fill="#d82625"/><path d="m43.1 48.3h3.4v3.35h-3.4z" fill="#d82625"/><path d="m35.2 48.3h3.3v3.35h-3.3z" fill="#d82625"/><path d="m62.9 48.3h3.4v3.35h-3.4z" fill="#d82625"/><path d="m47.1 48.3h3.4v3.35h-3.4z" fill="#d82625"/><path d="m51 48.3h3.4v3.35h-3.4z" fill="#d82625"/><path d="m66.8 48.3h3.4v3.35h-3.4z" fill="#d82625"/><path d="m58.9 48.3h3.4v3.35h-3.4z" fill="#d82625"/><path d="m55 48.3h3.4v3.35h-3.4z" fill="#d82625"/><path d="m55 40.4h3.4v3.35h-3.4z" fill="#fff"/><path d="m55 36.4h3.4v3.35h-3.4z" fill="#fff"/><path d="m55 32.5h3.4v3.35h-3.4z" fill="#fff"/><path d="m74.7 44.3h3.4v3.35h-3.4z" fill="#fff"/><path d="m74.7 40.4h3.4v3.35h-3.4z" fill="#fff"/><path d="m74.7 36.4h3.4v3.35h-3.4z" fill="#fff"/></svg>